<svg width="146" height="218" viewBox="0 0 146 218" fill="none" xmlns="http://www.w3.org/2000/svg">
<g clip-path="url(#clip0_133_470)">
<path d="M36.3333 218C56.3893 218 72.6667 201.723 72.6667 181.667V145.333H36.3333C16.2773 145.333 0 161.611 0 181.667C0 201.723 16.2773 218 36.3333 218Z" fill="#0ACF83"/>
<path d="M0 109C0 88.944 16.2773 72.6667 36.3333 72.6667H72.6667V145.333H36.3333C16.2773 145.333 0 129.056 0 109Z" fill="#A259FF"/>
<path d="M0 36.3333C0 16.2773 16.2773 0 36.3333 0H72.6667V72.6667H36.3333C16.2773 72.6667 0 56.3893 0 36.3333Z" fill="#F24E1E"/>
<path d="M72.6665 0H109C129.056 0 145.333 16.2773 145.333 36.3333C145.333 56.3893 129.056 72.6667 109 72.6667H72.6665V0Z" fill="#FF7262"/>
<path d="M145.333 109C145.333 129.056 129.056 145.333 109 145.333C88.9438 145.333 72.6665 129.056 72.6665 109C72.6665 88.944 88.9438 72.6667 109 72.6667C129.056 72.6667 145.333 88.944 145.333 109Z" fill="#1ABCFE"/>
</g>
<defs>
<clipPath id="clip0_133_470">
<rect width="145.333" height="218" fill="white"/>
</clipPath>
</defs>
</svg>
