<svg width="219" height="218" viewBox="0 0 219 218" fill="none" xmlns="http://www.w3.org/2000/svg">
<path d="M137.238 39.5842C133.631 38.6885 124.851 35.1095 109.334 35.1095C93.8163 35.1095 85.0372 38.6885 81.4297 39.5842C76.5423 35.7774 63.4084 26.16 48.8751 26.16C45.6777 35.1095 46.2122 46.0208 48.8751 53.0084C41.8991 61.9579 39.5737 70.9074 39.5737 84.3316C39.5737 103.909 44.0665 116.39 53.5257 124.604C62.985 132.818 73.1636 136.909 86.0804 138.028C80.0293 142.843 81.4297 154.802 81.4297 160.402V196.2H137.238V160.402C137.238 154.802 138.639 142.843 132.587 138.028C145.504 136.909 155.682 132.818 165.142 124.604C174.601 116.39 179.094 103.909 179.094 84.3316C179.094 70.9074 176.768 61.9579 169.792 53.0084C172.455 46.0208 172.99 35.1095 169.792 26.16C155.259 26.16 142.126 35.7774 137.238 39.5842Z" fill="#8B8B8B" fill-opacity="0.5"/>
<path d="M109.333 36.3333C124.487 36.3333 133.061 39.9658 136.583 40.875C141.357 37.0112 154.182 27.25 168.375 27.25C171.498 36.3333 170.976 47.4078 168.375 54.5C175.188 63.5833 177.458 72.6667 177.458 86.2917C177.458 106.161 173.071 118.83 163.833 127.167C154.596 135.503 144.656 139.655 132.042 140.792C137.951 145.679 136.583 157.817 136.583 163.5C136.583 170.091 136.583 190.75 136.583 190.75" stroke="#8B8B8B" stroke-width="2.5" stroke-linecap="round" stroke-linejoin="round"/>
<path d="M109.333 36.3333C94.1798 36.3333 85.6064 39.9658 82.0835 40.875C77.3107 37.0112 64.4845 27.25 50.2918 27.25C47.1694 36.3333 47.6914 47.4078 50.2918 54.5C43.4793 63.5833 41.2085 72.6667 41.2085 86.2917C41.2085 106.161 45.5958 118.83 54.8335 127.167C64.0712 135.503 74.0111 139.655 86.6252 140.792C80.7159 145.679 82.0835 157.817 82.0835 163.5C82.0835 170.091 82.0835 190.75 82.0835 190.75" stroke="#8B8B8B" stroke-width="2.5" stroke-linecap="round" stroke-linejoin="round"/>
<path d="M82.0835 172.583C69.3101 172.583 56.2528 167.474 48.5887 161.797C40.9246 156.12 38.6538 146.752 27.5835 140.792" fill="#8B8B8B" fill-opacity="0.5"/>
<path d="M82.0835 172.583C69.3101 172.583 56.2528 167.474 48.5887 161.797C40.9246 156.12 38.6538 146.752 27.5835 140.792" stroke="#8B8B8B" stroke-width="2.5" stroke-linecap="round"/>
</svg>
