<svg width="46" height="46" viewBox="0 0 46 46" fill="none" xmlns="http://www.w3.org/2000/svg">
<path d="M42.5087 39.0491V23.5894C42.5089 22.5138 42.2894 21.4495 41.8638 20.4617C41.4381 19.4739 40.8153 18.5834 40.0335 17.8448L25.4686 4.07994C24.7351 3.38642 23.7639 3 22.7544 3C21.7449 3 20.7737 3.38642 20.0401 4.07994L5.47522 17.8448C4.69339 18.5834 4.07059 19.4739 3.64498 20.4617C3.21936 21.4495 2.99989 22.5138 3 23.5894V39.0491C3 40.097 3.41625 41.1019 4.15718 41.8428C4.89812 42.5837 5.90304 43 6.95087 43H38.5579C39.6057 43 40.6106 42.5837 41.3516 41.8428C42.0925 41.1019 42.5087 40.097 42.5087 39.0491Z" stroke="white" stroke-width="5" stroke-linecap="round" stroke-linejoin="round"/>
</svg>
