<svg width="44" height="44" viewBox="0 0 44 44" fill="none" xmlns="http://www.w3.org/2000/svg">
<mask id="mask0_133_718" style="mask-type:alpha" maskUnits="userSpaceOnUse" x="0" y="0" width="44" height="44">
<path d="M15.3333 2H4.22222C3.63285 2 3.06762 2.23413 2.65087 2.65087C2.23413 3.06762 2 3.63285 2 4.22222V15.3333C2 15.9227 2.23413 16.4879 2.65087 16.9047C3.06762 17.3214 3.63285 17.5556 4.22222 17.5556H15.3333C15.9227 17.5556 16.4879 17.3214 16.9047 16.9047C17.3214 16.4879 17.5556 15.9227 17.5556 15.3333V4.22222C17.5556 3.63285 17.3214 3.06762 16.9047 2.65087C16.4879 2.23413 15.9227 2 15.3333 2V2ZM15.3333 26.4444H4.22222C3.63285 26.4444 3.06762 26.6786 2.65087 27.0953C2.23413 27.5121 2 28.0773 2 28.6667V39.7778C2 40.3671 2.23413 40.9324 2.65087 41.3491C3.06762 41.7659 3.63285 42 4.22222 42H15.3333C15.9227 42 16.4879 41.7659 16.9047 41.3491C17.3214 40.9324 17.5556 40.3671 17.5556 39.7778V28.6667C17.5556 28.0773 17.3214 27.5121 16.9047 27.0953C16.4879 26.6786 15.9227 26.4444 15.3333 26.4444ZM39.7778 2H28.6667C28.0773 2 27.5121 2.23413 27.0953 2.65087C26.6786 3.06762 26.4444 3.63285 26.4444 4.22222V15.3333C26.4444 15.9227 26.6786 16.4879 27.0953 16.9047C27.5121 17.3214 28.0773 17.5556 28.6667 17.5556H39.7778C40.3671 17.5556 40.9324 17.3214 41.3491 16.9047C41.7659 16.4879 42 15.9227 42 15.3333V4.22222C42 3.63285 41.7659 3.06762 41.3491 2.65087C40.9324 2.23413 40.3671 2 39.7778 2V2ZM39.7778 26.4444H28.6667C28.0773 26.4444 27.5121 26.6786 27.0953 27.0953C26.6786 27.5121 26.4444 28.0773 26.4444 28.6667V39.7778C26.4444 40.3671 26.6786 40.9324 27.0953 41.3491C27.5121 41.7659 28.0773 42 28.6667 42H39.7778C40.3671 42 40.9324 41.7659 41.3491 41.3491C41.7659 40.9324 42 40.3671 42 39.7778V28.6667C42 28.0773 41.7659 27.5121 41.3491 27.0953C40.9324 26.6786 40.3671 26.4444 39.7778 26.4444Z" fill="white" stroke="white" stroke-width="2.5" stroke-linejoin="round"/>
</mask>
<g mask="url(#mask0_133_718)">
<path d="M-3.33331 -3.33337H47.3334V47.3333H-3.33331V-3.33337Z" fill="white"/>
</g>
</svg>
