<svg width="30" height="30" viewBox="0 0 30 30" fill="none" xmlns="http://www.w3.org/2000/svg">
<path d="M11.25 15.3337V27.1875C11.25 27.3474 11.2909 27.5046 11.3688 27.6442C11.4467 27.7838 11.559 27.9012 11.695 27.9852C11.831 28.0692 11.9863 28.117 12.146 28.124C12.3057 28.1311 12.4646 28.0972 12.6075 28.0256L18.2325 25.2131C18.388 25.1352 18.5188 25.0155 18.6102 24.8675C18.7016 24.7195 18.75 24.549 18.75 24.375V15.3337L26.9756 5.28187C27.0537 5.18658 27.1122 5.07685 27.1479 4.95894C27.1835 4.84103 27.1956 4.71726 27.1834 4.59469C27.1712 4.47211 27.135 4.35314 27.0768 4.24456C27.0187 4.13598 26.9397 4.03992 26.8444 3.96187C26.7491 3.88382 26.6394 3.82529 26.5215 3.78965C26.4036 3.754 26.2798 3.74193 26.1572 3.75411C26.0346 3.7663 25.9157 3.80251 25.8071 3.86068C25.6985 3.91885 25.6024 3.99783 25.5244 4.09312L17.0869 14.4056C16.9497 14.5733 16.8748 14.7833 16.875 15V23.7956L13.125 25.6706V15C13.1252 14.7833 13.0503 14.5733 12.9131 14.4056L5.72814 5.625H20.625C20.8737 5.625 21.1121 5.52622 21.2879 5.35041C21.4637 5.17459 21.5625 4.93614 21.5625 4.6875C21.5625 4.43885 21.4637 4.2004 21.2879 4.02458C21.1121 3.84877 20.8737 3.75 20.625 3.75H3.75002C3.57241 3.74988 3.39843 3.80021 3.24833 3.89513C3.09822 3.99005 2.97816 4.12566 2.90214 4.28616C2.82611 4.44667 2.79723 4.62547 2.81888 4.80175C2.84052 4.97802 2.91179 5.14453 3.02439 5.28187L11.25 15.3337Z" fill="white"/>
</svg>
