<svg width="66" height="75" viewBox="0 0 66 75" fill="none" xmlns="http://www.w3.org/2000/svg">
<g clip-path="url(#clip0_133_546)">
<path d="M58.0813 4.6875H6.96975C3.12187 4.6875 0 7.83691 0 11.7187V63.2812C0 67.1631 3.12187 70.3125 6.96975 70.3125H58.0813C61.9292 70.3125 65.051 67.1631 65.051 63.2812V11.7187C65.051 7.83691 61.9292 4.6875 58.0813 4.6875ZM35.4005 55.8691C35.4005 62.2559 31.6833 65.1709 26.2673 65.1709C21.3739 65.1709 18.5424 62.6221 17.0904 59.5312L22.0709 56.499C23.0292 58.2129 23.9004 59.6631 26.0059 59.6631C28.0097 59.6631 29.2875 58.8721 29.2875 55.7812V34.8193H35.4005V55.8691ZM49.8628 65.1709C44.1853 65.1709 40.5117 62.4463 38.7257 58.8721L43.7062 55.9717C45.013 58.125 46.7264 59.7217 49.7321 59.7217C52.2586 59.7217 53.8849 58.4473 53.8849 56.6748C53.8849 54.5654 52.2296 53.8184 49.4272 52.5732L47.9025 51.9141C43.4884 50.0244 40.5698 47.6367 40.5698 42.6123C40.5698 37.9834 44.0692 34.4678 49.5143 34.4678C53.4057 34.4678 56.1936 35.8301 58.1974 39.4043L53.4348 42.4805C52.3893 40.5908 51.2567 39.8437 49.4998 39.8437C47.7138 39.8437 46.5812 40.9863 46.5812 42.4805C46.5812 44.3262 47.7138 45.0732 50.3419 46.2305L51.8666 46.8896C57.0649 49.1309 59.9834 51.4307 59.9834 56.5869C59.9834 62.124 55.6564 65.1709 49.8628 65.1709Z" fill="white"/>
</g>
<defs>
<clipPath id="clip0_133_546">
<rect width="65.051" height="75" fill="white"/>
</clipPath>
</defs>
</svg>
