<svg width="147" height="87" viewBox="0 0 147 87" fill="none" xmlns="http://www.w3.org/2000/svg">
<path d="M30.4532 27.295H41.5412V31.585H30.4532V27.295ZM30.8492 40H25.5032V16.9H42.9602V21.19H30.8492V40ZM50.9047 28.483H60.0787V32.278H50.9047V28.483ZM51.4327 36.007H61.5637V40H46.2847V21.025H61.2007V25.018H51.4327V36.007ZM68.9268 40V25.084H62.9538V21.025H80.1138V25.084H74.1408V40H68.9268ZM91.6821 40.363C89.6581 40.363 87.8431 39.945 86.2371 39.109C84.6531 38.251 83.3991 37.085 82.4751 35.611C81.5511 34.115 81.0891 32.421 81.0891 30.529C81.0891 28.615 81.5511 26.921 82.4751 25.447C83.3991 23.951 84.6531 22.785 86.2371 21.949C87.8431 21.091 89.6581 20.662 91.6821 20.662C93.4641 20.662 95.0261 20.937 96.3681 21.487C97.7321 22.015 98.8981 22.895 99.8661 24.127L96.5001 27.196C95.8621 26.426 95.1581 25.854 94.3881 25.48C93.6181 25.106 92.7821 24.919 91.8801 24.919C90.8021 24.919 89.8451 25.161 89.0091 25.645C88.1731 26.107 87.5131 26.756 87.0291 27.592C86.5671 28.428 86.3361 29.407 86.3361 30.529C86.3361 31.629 86.5671 32.597 87.0291 33.433C87.5131 34.269 88.1731 34.929 89.0091 35.413C89.8451 35.875 90.8021 36.106 91.8801 36.106C92.7821 36.106 93.6181 35.919 94.3881 35.545C95.1581 35.171 95.8621 34.599 96.5001 33.829L99.8661 36.898C98.8981 38.108 97.7321 38.988 96.3681 39.538C95.0261 40.088 93.4641 40.363 91.6821 40.363ZM103.132 40V21.025H108.346V28.285H116.068V21.025H121.282V40H116.068V32.476H108.346V40H103.132ZM43.0278 71L53.3238 47.9H58.6038L68.9328 71H63.3228L54.8748 50.606H56.9868L48.5058 71H43.0278ZM48.1758 66.05L49.5948 61.991H61.4748L62.9268 66.05H48.1758ZM71.3294 71V47.9H81.3284C83.3964 47.9 85.1784 48.241 86.6744 48.923C88.1704 49.583 89.3254 50.54 90.1394 51.794C90.9534 53.048 91.3604 54.544 91.3604 56.282C91.3604 57.998 90.9534 59.483 90.1394 60.737C89.3254 61.991 88.1704 62.959 86.6744 63.641C85.1784 64.301 83.3964 64.631 81.3284 64.631H74.2994L76.6754 62.222V71H71.3294ZM76.6754 62.816L74.2994 60.275H81.0314C82.6814 60.275 83.9134 59.923 84.7274 59.219C85.5414 58.515 85.9484 57.536 85.9484 56.282C85.9484 55.006 85.5414 54.016 84.7274 53.312C83.9134 52.608 82.6814 52.256 81.0314 52.256H74.2994L76.6754 49.715V62.816ZM95.177 71V47.9H100.523V71H95.177Z" fill="white"/>
</svg>
