<svg width="76" height="75" viewBox="0 0 76 75" fill="none" xmlns="http://www.w3.org/2000/svg">
<path d="M7.8825 49.5208C5.93916 52.1609 5.03482 55.4236 5.34173 58.6874C5.64863 61.9512 7.14534 64.9881 9.54677 67.2197C11.9482 69.4512 15.0866 70.7215 18.3641 70.7886C21.6416 70.8556 24.8293 69.7148 27.32 67.5833C22.6765 66.7842 18.366 64.6509 14.9144 61.4434C11.4628 58.236 9.01949 54.0933 7.8825 49.5208Z" fill="white"/>
<path d="M16.5908 30.2708C13.1763 34.0479 11.3309 38.9852 11.431 44.0759C11.531 49.1667 13.569 54.0276 17.1293 57.6676C20.6896 61.3077 25.5043 63.4527 30.5915 63.6655C35.6788 63.8782 40.6557 62.1426 44.5075 58.8125C37.1158 58.4429 30.1355 55.2988 24.9605 50.0079C19.7855 44.7171 16.7967 37.6689 16.5908 30.2708Z" fill="white"/>
<path d="M45.9658 4.16669C50.9571 4.1667 55.8365 5.64603 59.9874 8.41778C64.1384 11.1895 67.3748 15.1294 69.2877 19.7396C71.2007 24.3497 71.7043 29.4235 70.7351 34.3198C69.7659 39.2161 67.3673 43.7153 63.8422 47.2491C60.3172 50.7828 55.8239 53.1925 50.93 54.1739C46.0361 55.1552 40.9612 54.6641 36.3463 52.7625C31.7314 50.861 27.7836 47.6344 25.0015 43.4903C22.2195 39.3462 20.7282 34.4705 20.7158 29.4792C20.7076 26.1581 21.3546 22.8679 22.6199 19.7972C23.8851 16.7265 25.7437 13.9356 28.0892 11.5843C30.4347 9.23302 33.221 7.36753 36.2886 6.09469C39.3561 4.82185 42.6447 4.16668 45.9658 4.16669Z" fill="white"/>
</svg>
