<svg width="76" height="75" viewBox="0 0 76 75" fill="none" xmlns="http://www.w3.org/2000/svg">
<g clip-path="url(#clip0_133_505)">
<path d="M60.1779 53.125H38.428C37.3795 53.1239 36.3743 52.7012 35.6329 51.9496C34.8915 51.1979 34.4745 50.1788 34.4735 49.1158V37.0882C34.4745 36.0252 34.8915 35.0061 35.6329 34.2545C36.3743 33.5028 37.3795 33.0801 38.428 33.079H60.1779C61.2262 33.0806 62.2312 33.5035 62.9725 34.255C63.7137 35.0066 64.1309 36.0254 64.1324 37.0882V49.1158C64.1309 50.1786 63.7137 51.1975 62.9725 51.949C62.2312 52.7005 61.2262 53.1234 60.1779 53.125ZM38.428 37.0882V49.1158H60.1819L60.1779 37.0882H38.428ZM28.5417 17.0422V24.2307L20.0533 15.625L17.2574 18.4595L25.7458 27.0652H18.6554V31.0744H32.4962V17.0422H28.5417Z" fill="white"/>
<path d="M30.5187 41.6667H12.8504C11.8094 41.6656 10.8114 41.2392 10.0753 40.481C9.33917 39.7228 8.92517 38.6948 8.92413 37.6226V11.3358C8.92517 10.2636 9.33917 9.23555 10.0753 8.47736C10.8114 7.71918 11.8094 7.29276 12.8504 7.29169H56.0395C57.0805 7.29276 58.0786 7.71918 58.8147 8.47736C59.5508 9.23555 59.9648 10.2636 59.9658 11.3358V29.5343H56.0395V11.3358H12.8504V37.6226H30.5187V41.6667Z" fill="white"/>
<path d="M9.5335 67V65.687L9.3645 65.362V62.944C9.3645 62.554 9.24317 62.255 9.0005 62.047C8.7665 61.8303 8.3895 61.722 7.8695 61.722C7.5315 61.722 7.18917 61.7783 6.8425 61.891C6.49583 61.995 6.20117 62.1423 5.9585 62.333L5.1265 60.656C5.52517 60.396 6.00183 60.1967 6.5565 60.058C7.11983 59.9107 7.67883 59.837 8.2335 59.837C9.3775 59.837 10.2615 60.1013 10.8855 60.63C11.5182 61.15 11.8345 61.969 11.8345 63.087V67H9.5335ZM7.4535 67.117C6.89017 67.117 6.4135 67.0217 6.0235 66.831C5.6335 66.6403 5.3345 66.3803 5.1265 66.051C4.92717 65.7217 4.8275 65.3533 4.8275 64.946C4.8275 64.5127 4.93583 64.14 5.1525 63.828C5.37783 63.5073 5.72017 63.2647 6.1795 63.1C6.63883 62.9267 7.2325 62.84 7.9605 62.84H9.6245V64.127H8.2985C7.89983 64.127 7.61817 64.192 7.4535 64.322C7.2975 64.452 7.2195 64.6253 7.2195 64.842C7.2195 65.0587 7.30183 65.232 7.4665 65.362C7.63117 65.492 7.8565 65.557 8.1425 65.557C8.41117 65.557 8.65383 65.492 8.8705 65.362C9.09583 65.2233 9.2605 65.0153 9.3645 64.738L9.7025 65.648C9.5725 66.1333 9.31683 66.5017 8.9355 66.753C8.56283 66.9957 8.06883 67.117 7.4535 67.117ZM16.5505 67.117C15.9091 67.117 15.3241 66.9697 14.7955 66.675C14.2755 66.3717 13.8595 65.9513 13.5475 65.414C13.2355 64.868 13.0795 64.218 13.0795 63.464C13.0795 62.7187 13.2355 62.0773 13.5475 61.54C13.8595 60.994 14.2755 60.5737 14.7955 60.279C15.3241 59.9843 15.9091 59.837 16.5505 59.837C17.1571 59.837 17.6685 59.967 18.0845 60.227C18.5091 60.487 18.8298 60.8857 19.0465 61.423C19.2631 61.9603 19.3715 62.6407 19.3715 63.464C19.3715 64.3047 19.2675 64.9937 19.0595 65.531C18.8515 66.0683 18.5395 66.467 18.1235 66.727C17.7075 66.987 17.1831 67.117 16.5505 67.117ZM17.0705 65.154C17.3478 65.154 17.5948 65.089 17.8115 64.959C18.0368 64.829 18.2145 64.6383 18.3445 64.387C18.4745 64.127 18.5395 63.8193 18.5395 63.464C18.5395 63.1087 18.4745 62.8097 18.3445 62.567C18.2145 62.3157 18.0368 62.125 17.8115 61.995C17.5948 61.865 17.3478 61.8 17.0705 61.8C16.7845 61.8 16.5288 61.865 16.3035 61.995C16.0868 62.125 15.9135 62.3157 15.7835 62.567C15.6535 62.8097 15.5885 63.1087 15.5885 63.464C15.5885 63.8193 15.6535 64.127 15.7835 64.387C15.9135 64.6383 16.0868 64.829 16.3035 64.959C16.5288 65.089 16.7845 65.154 17.0705 65.154ZM18.6175 67V65.791L18.6305 63.464L18.5005 61.137V57.354H20.9705V67H18.6175ZM26.8626 67V65.687L26.6936 65.362V62.944C26.6936 62.554 26.5723 62.255 26.3296 62.047C26.0956 61.8303 25.7186 61.722 25.1986 61.722C24.8606 61.722 24.5183 61.7783 24.1716 61.891C23.8249 61.995 23.5303 62.1423 23.2876 62.333L22.4556 60.656C22.8543 60.396 23.3309 60.1967 23.8856 60.058C24.4489 59.9107 25.0079 59.837 25.5626 59.837C26.7066 59.837 27.5906 60.1013 28.2146 60.63C28.8473 61.15 29.1636 61.969 29.1636 63.087V67H26.8626ZM24.7826 67.117C24.2193 67.117 23.7426 67.0217 23.3526 66.831C22.9626 66.6403 22.6636 66.3803 22.4556 66.051C22.2563 65.7217 22.1566 65.3533 22.1566 64.946C22.1566 64.5127 22.2649 64.14 22.4816 63.828C22.7069 63.5073 23.0493 63.2647 23.5086 63.1C23.9679 62.9267 24.5616 62.84 25.2896 62.84H26.9536V64.127H25.6276C25.2289 64.127 24.9473 64.192 24.7826 64.322C24.6266 64.452 24.5486 64.6253 24.5486 64.842C24.5486 65.0587 24.6309 65.232 24.7956 65.362C24.9603 65.492 25.1856 65.557 25.4716 65.557C25.7403 65.557 25.9829 65.492 26.1996 65.362C26.4249 65.2233 26.5896 65.0153 26.6936 64.738L27.0316 65.648C26.9016 66.1333 26.6459 66.5017 26.2646 66.753C25.8919 66.9957 25.3979 67.117 24.7826 67.117ZM35.1557 67.117C34.5577 67.117 34.0464 66.987 33.6217 66.727C33.197 66.4583 32.872 66.0597 32.6467 65.531C32.43 64.9937 32.3217 64.309 32.3217 63.477C32.3217 62.6363 32.4257 61.9517 32.6337 61.423C32.8417 60.8857 33.1537 60.487 33.5697 60.227C33.9944 59.967 34.523 59.837 35.1557 59.837C35.797 59.837 36.3777 59.9887 36.8977 60.292C37.4264 60.5867 37.8424 61.007 38.1457 61.553C38.4577 62.0903 38.6137 62.7317 38.6137 63.477C38.6137 64.2223 38.4577 64.868 38.1457 65.414C37.8424 65.96 37.4264 66.3803 36.8977 66.675C36.3777 66.9697 35.797 67.117 35.1557 67.117ZM30.7227 69.522V59.954H33.0757V61.15L33.0627 63.477L33.1927 65.817V69.522H30.7227ZM34.6357 65.154C34.913 65.154 35.16 65.089 35.3767 64.959C35.602 64.829 35.7797 64.6383 35.9097 64.387C36.0484 64.1357 36.1177 63.8323 36.1177 63.477C36.1177 63.1217 36.0484 62.8183 35.9097 62.567C35.7797 62.3157 35.602 62.125 35.3767 61.995C35.16 61.865 34.913 61.8 34.6357 61.8C34.3584 61.8 34.107 61.865 33.8817 61.995C33.665 62.125 33.4874 62.3157 33.3487 62.567C33.2187 62.8183 33.1537 63.1217 33.1537 63.477C33.1537 63.8323 33.2187 64.1357 33.3487 64.387C33.4874 64.6383 33.665 64.829 33.8817 64.959C34.107 65.089 34.3584 65.154 34.6357 65.154ZM42.9078 67.117C42.0064 67.117 41.3044 66.896 40.8018 66.454C40.2991 66.0033 40.0478 65.3273 40.0478 64.426V58.381H42.5178V64.4C42.5178 64.6513 42.5871 64.8507 42.7258 64.998C42.8644 65.1367 43.0421 65.206 43.2588 65.206C43.5534 65.206 43.8048 65.1323 44.0128 64.985L44.6238 66.714C44.4158 66.8527 44.1601 66.9523 43.8568 67.013C43.5534 67.0823 43.2371 67.117 42.9078 67.117ZM39.0208 62.06V60.214H44.1298V62.06H39.0208ZM45.5762 67V59.954H48.0462V67H45.5762ZM46.8112 59.174C46.3605 59.174 45.9965 59.0483 45.7192 58.797C45.4419 58.5457 45.3032 58.2337 45.3032 57.861C45.3032 57.4883 45.4419 57.1763 45.7192 56.925C45.9965 56.6737 46.3605 56.548 46.8112 56.548C47.2619 56.548 47.6259 56.6693 47.9032 56.912C48.1805 57.146 48.3192 57.4493 48.3192 57.822C48.3192 58.212 48.1805 58.537 47.9032 58.797C47.6345 59.0483 47.2705 59.174 46.8112 59.174ZM51.6144 67L48.7154 59.954H51.2504L53.5644 65.843H52.2904L54.7214 59.954H57.0744L54.1624 67H51.6144ZM57.7129 67V59.954H60.1829V67H57.7129ZM58.9479 59.174C58.4973 59.174 58.1333 59.0483 57.8559 58.797C57.5786 58.5457 57.4399 58.2337 57.4399 57.861C57.4399 57.4883 57.5786 57.1763 57.8559 56.925C58.1333 56.6737 58.4973 56.548 58.9479 56.548C59.3986 56.548 59.7626 56.6693 60.0399 56.912C60.3173 57.146 60.4559 57.4493 60.4559 57.822C60.4559 58.212 60.3173 58.537 60.0399 58.797C59.7713 59.0483 59.4073 59.174 58.9479 59.174ZM64.9341 67.117C64.0328 67.117 63.3308 66.896 62.8281 66.454C62.3255 66.0033 62.0741 65.3273 62.0741 64.426V58.381H64.5441V64.4C64.5441 64.6513 64.6135 64.8507 64.7521 64.998C64.8908 65.1367 65.0685 65.206 65.2851 65.206C65.5798 65.206 65.8311 65.1323 66.0391 64.985L66.6501 66.714C66.4421 66.8527 66.1865 66.9523 65.8831 67.013C65.5798 67.0823 65.2635 67.117 64.9341 67.117ZM61.0471 62.06V60.214H66.1561V62.06H61.0471ZM68.6846 69.639C68.312 69.639 67.935 69.5783 67.5536 69.457C67.181 69.3443 66.8776 69.1927 66.6436 69.002L67.5016 67.273C67.649 67.403 67.818 67.5027 68.0086 67.572C68.208 67.65 68.403 67.689 68.5936 67.689C68.8623 67.689 69.0746 67.6283 69.2306 67.507C69.3866 67.3857 69.521 67.195 69.6336 66.935L69.9586 66.116L70.1536 65.869L72.5456 59.954H74.8986L71.8566 67.286C71.614 67.8927 71.3323 68.365 71.0116 68.703C70.6996 69.0497 70.3486 69.2923 69.9586 69.431C69.5773 69.5697 69.1526 69.639 68.6846 69.639ZM69.6466 67.299L66.5396 59.954H69.0746L71.3626 65.648L69.6466 67.299Z" fill="white"/>
</g>
<defs>
<clipPath id="clip0_133_505">
<rect width="75" height="75" fill="white" transform="translate(0.59082)"/>
</clipPath>
</defs>
</svg>
