<svg width="112" height="85" viewBox="0 0 112 85" fill="none" xmlns="http://www.w3.org/2000/svg">
<g clip-path="url(#clip0_133_495)">
<path d="M49.1589 33.7222L58.1705 41.5556M43.1511 10.2222H37.1434C35.5501 10.2222 34.022 10.7724 32.8953 11.7518C31.7686 12.7311 31.1357 14.0594 31.1357 15.4444V46.7778C31.1357 48.1628 31.7686 49.4911 32.8953 50.4704C34.022 51.4498 35.5501 52 37.1434 52H67.1821C68.7754 52 70.3035 51.4498 71.4302 50.4704C72.5568 49.4911 73.1898 48.1628 73.1898 46.7778V44.1667L43.1511 10.2222ZM43.1511 10.2222C43.1511 11.6072 43.7841 12.9355 44.9108 13.9149C46.0374 14.8942 47.5655 15.4444 49.1589 15.4444H55.1666C56.76 15.4444 58.288 14.8942 59.4147 13.9149C60.5414 12.9355 61.1743 11.6072 61.1743 10.2222H43.1511ZM43.1511 10.2222C43.1511 8.8372 43.7841 7.50891 44.9108 6.52955C46.0374 5.5502 47.5655 5 49.1589 5H55.1666C56.76 5 58.288 5.5502 59.4147 6.52955C60.5414 7.50891 61.1743 8.8372 61.1743 10.2222H43.1511ZM61.1743 10.2222H67.1821C68.7754 10.2222 70.3035 10.7724 71.4302 11.7518C72.5568 12.7311 73.1898 14.0594 73.1898 15.4444V23.2778L61.1743 10.2222ZM79.1975 33.7222H49.1589H79.1975ZM49.1589 33.7222L58.1705 25.8889L49.1589 33.7222Z" stroke="white" stroke-width="3" stroke-linecap="round" stroke-linejoin="round"/>
<path d="M10.4875 73.154C9.62885 73.154 8.85885 72.9767 8.17751 72.622C7.50551 72.258 6.97351 71.7633 6.58151 71.138C6.18951 70.5033 5.99351 69.7847 5.99351 68.982C5.99351 68.17 6.18951 67.4513 6.58151 66.826C6.97351 66.1913 7.50551 65.6967 8.17751 65.342C8.85885 64.978 9.62885 64.796 10.4875 64.796C11.2435 64.796 11.9062 64.9127 12.4755 65.146C13.0542 65.37 13.5488 65.7433 13.9595 66.266L12.5315 67.568C12.2608 67.2413 11.9622 66.9987 11.6355 66.84C11.3088 66.6813 10.9542 66.602 10.5715 66.602C10.1142 66.602 9.70818 66.7047 9.35351 66.91C8.99885 67.106 8.71885 67.3813 8.51351 67.736C8.31751 68.0907 8.21951 68.506 8.21951 68.982C8.21951 69.4487 8.31751 69.8593 8.51351 70.214C8.71885 70.5687 8.99885 70.8487 9.35351 71.054C9.70818 71.25 10.1142 71.348 10.5715 71.348C10.9542 71.348 11.3088 71.2687 11.6355 71.11C11.9622 70.9513 12.2608 70.7087 12.5315 70.382L13.9595 71.684C13.5488 72.1973 13.0542 72.5707 12.4755 72.804C11.9062 73.0373 11.2435 73.154 10.4875 73.154ZM15.3452 73V64.95H17.5572V71.278H21.4912V73H15.3452ZM22.687 73V64.95H24.899V73H22.687ZM27.0346 73V64.95H30.7026C31.4493 64.95 32.0886 65.0713 32.6206 65.314C33.162 65.5473 33.582 65.8833 33.8806 66.322C34.1793 66.7607 34.3286 67.2927 34.3286 67.918C34.3286 68.5247 34.1793 69.052 33.8806 69.5C33.582 69.948 33.162 70.2887 32.6206 70.522C32.0886 70.7553 31.4493 70.872 30.7026 70.872H28.2526L29.2466 69.906V73H27.0346ZM29.2466 70.158L28.4346 69.164H30.5486C31.062 69.164 31.4493 69.0567 31.7106 68.842C31.972 68.618 32.1026 68.31 32.1026 67.918C32.1026 67.5167 31.972 67.2087 31.7106 66.994C31.4493 66.7793 31.062 66.672 30.5486 66.672H28.4346L29.2466 65.678V70.158ZM35.9487 73V64.95H40.0647C41.1287 64.95 41.922 65.146 42.4447 65.538C42.9767 65.93 43.2427 66.4387 43.2427 67.064C43.2427 67.68 43.0187 68.1793 42.5707 68.562C42.132 68.9447 41.516 69.136 40.7227 69.136L40.9467 68.604C41.7774 68.604 42.4354 68.7953 42.9207 69.178C43.406 69.5513 43.6487 70.088 43.6487 70.788C43.6487 71.4787 43.364 72.02 42.7947 72.412C42.2254 72.804 41.39 73 40.2887 73H35.9487ZM38.1327 71.446H40.1347C40.5547 71.446 40.872 71.3713 41.0867 71.222C41.3107 71.0727 41.4227 70.8533 41.4227 70.564C41.4227 70.2653 41.3107 70.046 41.0867 69.906C40.872 69.7567 40.5547 69.682 40.1347 69.682H37.9087V68.198H39.7847C40.1954 68.198 40.5034 68.128 40.7087 67.988C40.9234 67.848 41.0307 67.638 41.0307 67.358C41.0307 67.078 40.9234 66.868 40.7087 66.728C40.5034 66.5787 40.1954 66.504 39.7847 66.504H38.1327V71.446ZM49.0975 73.154C48.2295 73.154 47.4549 72.9767 46.7735 72.622C46.0922 72.258 45.5555 71.7587 45.1635 71.124C44.7715 70.4893 44.5755 69.7707 44.5755 68.968C44.5755 68.1653 44.7715 67.4513 45.1635 66.826C45.5555 66.2007 46.0922 65.706 46.7735 65.342C47.4549 64.978 48.2295 64.796 49.0975 64.796C49.9655 64.796 50.7402 64.978 51.4215 65.342C52.1029 65.706 52.6395 66.2007 53.0315 66.826C53.4235 67.4513 53.6195 68.1653 53.6195 68.968C53.6195 69.7707 53.4235 70.4893 53.0315 71.124C52.6395 71.7587 52.1029 72.258 51.4215 72.622C50.7402 72.9767 49.9655 73.154 49.0975 73.154ZM49.0975 71.348C49.5455 71.348 49.9375 71.25 50.2735 71.054C50.6189 70.8487 50.8895 70.564 51.0855 70.2C51.2815 69.836 51.3795 69.43 51.3795 68.982C51.3795 68.5153 51.2815 68.1047 51.0855 67.75C50.8895 67.3953 50.6189 67.1153 50.2735 66.91C49.9375 66.7047 49.5455 66.602 49.0975 66.602C48.6589 66.602 48.2669 66.7047 47.9215 66.91C47.5762 67.1153 47.3009 67.3953 47.0955 67.75C46.8995 68.1047 46.8015 68.5107 46.8015 68.968C46.8015 69.4253 46.8995 69.836 47.0955 70.2C47.3009 70.564 47.5762 70.8487 47.9215 71.054C48.2669 71.25 48.6589 71.348 49.0975 71.348ZM53.8443 73L57.4563 64.95H59.6403L63.2663 73H61.0823L58.1843 66.014H58.9263L55.9863 73H53.8443ZM55.8183 71.404L56.3923 69.808H60.3683L60.9423 71.404H55.8183ZM64.2221 73V64.95H67.8901C68.6368 64.95 69.2761 65.0713 69.8081 65.314C70.3495 65.5473 70.7695 65.8833 71.0681 66.322C71.3668 66.7607 71.5161 67.2927 71.5161 67.918C71.5161 68.5247 71.3668 69.0473 71.0681 69.486C70.7695 69.9247 70.3495 70.2607 69.8081 70.494C69.2761 70.7273 68.6368 70.844 67.8901 70.844H65.4401L66.4341 69.906V73H64.2221ZM69.2901 73L67.2601 70.074H69.6121L71.6701 73H69.2901ZM66.4341 70.158L65.6221 69.164H67.7361C68.2495 69.164 68.6368 69.0567 68.8981 68.842C69.1595 68.618 69.2901 68.31 69.2901 67.918C69.2901 67.5167 69.1595 67.2087 68.8981 66.994C68.6368 66.7793 68.2495 66.672 67.7361 66.672H65.6221L66.4341 65.678V70.158ZM73.2319 73V64.95H77.0259C77.9499 64.95 78.7526 65.1133 79.4339 65.44C80.1246 65.7667 80.6566 66.2333 81.0299 66.84C81.4126 67.4373 81.6039 68.1513 81.6039 68.982C81.6039 69.8033 81.4126 70.5173 81.0299 71.124C80.6566 71.7213 80.1246 72.1833 79.4339 72.51C78.7526 72.8367 77.9499 73 77.0259 73H73.2319ZM75.4439 71.264H76.9559C77.4506 71.264 77.8752 71.1753 78.2299 70.998C78.5939 70.8207 78.8739 70.564 79.0699 70.228C79.2659 69.8827 79.3639 69.4673 79.3639 68.982C79.3639 68.4873 79.2659 68.072 79.0699 67.736C78.8739 67.3907 78.5939 67.1293 78.2299 66.952C77.8752 66.7747 77.4506 66.686 76.9559 66.686H75.4439V71.264ZM83.915 73.112C83.523 73.112 83.201 72.986 82.949 72.734C82.697 72.482 82.571 72.1833 82.571 71.838C82.571 71.4833 82.697 71.1893 82.949 70.956C83.201 70.7133 83.523 70.592 83.915 70.592C84.307 70.592 84.6243 70.7133 84.867 70.956C85.119 71.1893 85.245 71.4833 85.245 71.838C85.245 72.1833 85.119 72.482 84.867 72.734C84.6243 72.986 84.307 73.112 83.915 73.112ZM89.0313 73.154C88.434 73.154 87.8927 73.0513 87.4073 72.846C86.9313 72.6407 86.544 72.3373 86.2453 71.936L87.5333 70.564C87.7293 70.8253 87.944 71.0307 88.1773 71.18C88.4107 71.32 88.6627 71.39 88.9333 71.39C89.6147 71.39 89.9553 70.984 89.9553 70.172V66.658H87.1413V64.95H92.1533V69.962C92.1533 71.0447 91.8827 71.8473 91.3413 72.37C90.8093 72.8927 90.0393 73.154 89.0313 73.154ZM100.546 70.55C100.546 71.054 100.401 71.502 100.112 71.894C99.8319 72.286 99.4212 72.594 98.8799 72.818C98.3479 73.042 97.6899 73.154 96.9059 73.154C96.2619 73.154 95.6272 73.0747 95.0019 72.916C94.3859 72.7573 93.8866 72.5473 93.5039 72.286L94.2739 70.648C94.6379 70.8907 95.0626 71.082 95.5479 71.222C96.0332 71.362 96.5279 71.432 97.0319 71.432C97.5266 71.432 97.8719 71.362 98.0679 71.222C98.2639 71.082 98.3619 70.9187 98.3619 70.732C98.3619 70.5453 98.2732 70.396 98.0959 70.284C97.9279 70.172 97.7039 70.0833 97.4239 70.018C97.1532 69.9433 96.8499 69.8733 96.5139 69.808C96.1872 69.7427 95.8559 69.6587 95.5199 69.556C95.1932 69.4533 94.8899 69.318 94.6099 69.15C94.3392 68.9727 94.1152 68.744 93.9379 68.464C93.7699 68.1747 93.6859 67.8153 93.6859 67.386C93.6859 66.882 93.8306 66.4387 94.1199 66.056C94.4186 65.664 94.8386 65.356 95.3799 65.132C95.9212 64.908 96.5652 64.796 97.3119 64.796C97.8159 64.796 98.3292 64.852 98.8519 64.964C99.3746 65.076 99.8319 65.2533 100.224 65.496L99.5099 67.134C99.1459 66.91 98.7679 66.7513 98.3759 66.658C97.9932 66.5647 97.6106 66.518 97.2279 66.518C96.7612 66.518 96.4206 66.588 96.2059 66.728C95.9912 66.868 95.8839 67.0453 95.8839 67.26C95.8839 67.4467 95.9679 67.596 96.1359 67.708C96.3039 67.82 96.5232 67.9133 96.7939 67.988C97.0739 68.0533 97.3819 68.1187 97.7179 68.184C98.0539 68.2493 98.3852 68.3333 98.7119 68.436C99.0386 68.5293 99.3419 68.66 99.6219 68.828C99.9019 68.996 100.126 69.22 100.294 69.5C100.462 69.7707 100.546 70.1207 100.546 70.55Z" fill="white"/>
</g>
<defs>
<clipPath id="clip0_133_495">
<rect width="111" height="85" fill="white" transform="translate(0.23877)"/>
</clipPath>
</defs>
</svg>
