<svg width="76" height="75" viewBox="0 0 76 75" fill="none" xmlns="http://www.w3.org/2000/svg">
<path d="M7.88265 49.5208C5.93932 52.1609 5.03498 55.4236 5.34188 58.6874C5.64878 61.9512 7.14549 64.9881 9.54692 67.2197C11.9483 69.4512 15.0867 70.7215 18.3642 70.7886C21.6418 70.8556 24.8295 69.7148 27.3201 67.5833C22.6766 66.7842 18.3661 64.6509 14.9146 61.4434C11.463 58.236 9.01964 54.0933 7.88265 49.5208V49.5208Z" fill="white"/>
<path d="M16.591 30.2708C13.1764 34.0479 11.3311 38.9852 11.4311 44.0759C11.5312 49.1667 13.5691 54.0276 17.1294 57.6676C20.6898 61.3077 25.5044 63.4527 30.5917 63.6655C35.6789 63.8782 40.6558 62.1426 44.5076 58.8125C37.1159 58.4429 30.1356 55.2988 24.9606 50.0079C19.7856 44.7171 16.7968 37.6689 16.591 30.2708V30.2708Z" fill="white"/>
<path d="M45.9659 4.16669C50.9572 4.1667 55.8366 5.64603 59.9875 8.41778C64.1385 11.1895 67.3749 15.1294 69.2878 19.7396C71.2008 24.3497 71.7044 29.4235 70.7352 34.3198C69.766 39.2161 67.3674 43.7153 63.8423 47.249C60.3173 50.7828 55.824 53.1925 50.9301 54.1739C46.0362 55.1552 40.9613 54.6641 36.3464 52.7625C31.7315 50.861 27.7836 47.6344 25.0016 43.4903C22.2196 39.3462 20.7283 34.4705 20.7159 29.4792C20.7077 26.1581 21.3547 22.8679 22.62 19.7972C23.8852 16.7265 25.7438 13.9356 28.0893 11.5843C30.4348 9.23302 33.2211 7.36753 36.2887 6.09469C39.3562 4.82185 42.6448 4.16668 45.9659 4.16669" fill="white"/>
</svg>
