<svg width="96" height="75" viewBox="0 0 96 75" fill="none" xmlns="http://www.w3.org/2000/svg">
<path fill-rule="evenodd" clip-rule="evenodd" d="M19.9352 0C14.4705 0 10.4298 4.70344 10.6133 9.79915C10.7848 14.7027 10.5614 21.0458 8.93794 26.22C7.30251 31.4059 4.55021 34.6932 0.0507812 35.1169V39.8831C4.55021 40.3028 7.3065 43.5901 8.93395 48.78C10.5614 53.9542 10.7848 60.2974 10.6093 65.1969C10.4298 70.2966 14.4705 75 19.9352 75H75.9068C81.3715 75 85.4122 70.2966 85.2287 65.1969C85.0572 60.2974 85.2806 53.9542 86.904 48.78C88.5355 43.5901 91.2838 40.3068 95.7832 39.8831V35.1169C91.2838 34.6932 88.5355 31.4059 86.904 26.22C85.2806 21.0419 85.0572 14.6987 85.2287 9.79915C85.4122 4.69951 81.3675 0 75.9068 0H19.9352ZM64.9494 46.1674C64.9494 53.1892 59.6243 57.4455 50.789 57.4455H35.747C35.3164 57.4455 34.9035 57.2773 34.599 56.9778C34.2946 56.6784 34.1235 56.2723 34.1235 55.8489V19.1472C34.1246 18.7244 34.2961 18.3193 34.6005 18.0208C34.9048 17.7222 35.3171 17.5545 35.747 17.5545H50.7052C58.0726 17.5545 62.9111 21.4773 62.9111 27.5067C62.9111 31.7354 59.6562 35.5209 55.5118 36.1878V36.4075C61.156 37.0155 64.9534 40.8599 64.9534 46.1674H64.9494ZM49.1535 22.611H40.5775V34.5285H47.8013C53.3857 34.5285 56.4651 32.316 56.4651 28.3618C56.4651 24.6587 53.8165 22.611 49.1535 22.611ZM40.5775 39.2555V52.3851H49.4727C55.2844 52.3851 58.3678 50.0902 58.3678 45.7791C58.3678 41.464 55.2006 39.2555 49.0977 39.2555H40.5775V39.2555Z" fill="white"/>
</svg>
