<svg width="148" height="87" viewBox="0 0 148 87" fill="none" xmlns="http://www.w3.org/2000/svg">
<path d="M23.5611 39.396C21.7791 39.396 20.1181 39.11 18.5781 38.538C17.0601 37.944 15.7401 37.108 14.6181 36.03C13.4961 34.952 12.6161 33.687 11.9781 32.235C11.3621 30.783 11.0541 29.188 11.0541 27.45C11.0541 25.712 11.3621 24.117 11.9781 22.665C12.6161 21.213 13.4961 19.948 14.6181 18.87C15.7621 17.792 17.0931 16.967 18.6111 16.395C20.1291 15.801 21.7901 15.504 23.5941 15.504C25.5961 15.504 27.4001 15.856 29.0061 16.56C30.6341 17.242 31.9981 18.254 33.0981 19.596L29.6661 22.764C28.8741 21.862 27.9941 21.191 27.0261 20.751C26.0581 20.289 25.0021 20.058 23.8581 20.058C22.7801 20.058 21.7901 20.234 20.8881 20.586C19.9861 20.938 19.2051 21.444 18.5451 22.104C17.8851 22.764 17.3681 23.545 16.9941 24.447C16.6421 25.349 16.4661 26.35 16.4661 27.45C16.4661 28.55 16.6421 29.551 16.9941 30.453C17.3681 31.355 17.8851 32.136 18.5451 32.796C19.2051 33.456 19.9861 33.962 20.8881 34.314C21.7901 34.666 22.7801 34.842 23.8581 34.842C25.0021 34.842 26.0581 34.622 27.0261 34.182C27.9941 33.72 28.8741 33.027 29.6661 32.103L33.0981 35.271C31.9981 36.613 30.6341 37.636 29.0061 38.34C27.4001 39.044 25.5851 39.396 23.5611 39.396ZM33.35 39L41.864 20.025H47.012L55.559 39H50.411L43.58 22.533H45.329L38.399 39H33.35ZM38.003 35.238L39.356 31.476H48.728L50.081 35.238H38.003ZM57.812 39V20.025H62.102L72.794 32.862H70.847V20.025H75.962V39H71.672L60.947 26.163H62.927V39H57.812ZM86.6244 39L78.3744 20.025H83.9184L90.9144 36.69H87.7134L94.8414 20.025H100.022L91.7724 39H86.6244ZM98.351 39L106.865 20.025H112.013L120.56 39H115.412L108.581 22.533H110.33L103.4 39H98.351ZM103.004 35.238L104.357 31.476H113.729L115.082 35.238H103.004ZM137.696 33.225C137.696 34.413 137.355 35.469 136.673 36.393C136.013 37.317 135.045 38.043 133.769 38.571C132.515 39.099 130.964 39.363 129.116 39.363C127.598 39.363 126.102 39.176 124.628 38.802C123.176 38.428 121.999 37.933 121.097 37.317L122.912 33.456C123.77 34.028 124.771 34.479 125.915 34.809C127.059 35.139 128.225 35.304 129.413 35.304C130.579 35.304 131.393 35.139 131.855 34.809C132.317 34.479 132.548 34.094 132.548 33.654C132.548 33.214 132.339 32.862 131.921 32.598C131.525 32.334 130.997 32.125 130.337 31.971C129.699 31.795 128.984 31.63 128.192 31.476C127.422 31.322 126.641 31.124 125.849 30.882C125.079 30.64 124.364 30.321 123.704 29.925C123.066 29.507 122.538 28.968 122.12 28.308C121.724 27.626 121.526 26.779 121.526 25.767C121.526 24.579 121.867 23.534 122.549 22.632C123.253 21.708 124.243 20.982 125.519 20.454C126.795 19.926 128.313 19.662 130.073 19.662C131.261 19.662 132.471 19.794 133.703 20.058C134.935 20.322 136.013 20.74 136.937 21.312L135.254 25.173C134.396 24.645 133.505 24.271 132.581 24.051C131.679 23.831 130.777 23.721 129.875 23.721C128.775 23.721 127.972 23.886 127.466 24.216C126.96 24.546 126.707 24.964 126.707 25.47C126.707 25.91 126.905 26.262 127.301 26.526C127.697 26.79 128.214 27.01 128.852 27.186C129.512 27.34 130.238 27.494 131.03 27.648C131.822 27.802 132.603 28 133.373 28.242C134.143 28.462 134.858 28.77 135.518 29.166C136.178 29.562 136.706 30.09 137.102 30.75C137.498 31.388 137.696 32.213 137.696 33.225ZM61.6547 71.396C60.0927 71.396 58.6517 71.11 57.3317 70.538C56.0337 69.944 54.9667 69.108 54.1307 68.03L57.1007 64.466C57.7387 65.302 58.4097 65.94 59.1137 66.38C59.8177 66.798 60.5767 67.007 61.3907 67.007C63.5687 67.007 64.6577 65.731 64.6577 63.179V52.19H56.5397V47.9H69.9707V62.882C69.9707 65.742 69.2667 67.876 67.8587 69.284C66.4507 70.692 64.3827 71.396 61.6547 71.396ZM82.8413 71.396C80.9933 71.396 79.2223 71.154 77.5283 70.67C75.8343 70.164 74.4703 69.515 73.4363 68.723L75.2513 64.697C76.2413 65.401 77.4073 65.984 78.7493 66.446C80.1133 66.886 81.4883 67.106 82.8743 67.106C83.9303 67.106 84.7773 67.007 85.4153 66.809C86.0753 66.589 86.5593 66.292 86.8673 65.918C87.1753 65.544 87.3293 65.115 87.3293 64.631C87.3293 64.015 87.0873 63.531 86.6033 63.179C86.1193 62.805 85.4813 62.508 84.6893 62.288C83.8973 62.046 83.0173 61.826 82.0493 61.628C81.1033 61.408 80.1463 61.144 79.1783 60.836C78.2323 60.528 77.3633 60.132 76.5713 59.648C75.7793 59.164 75.1303 58.526 74.6243 57.734C74.1403 56.942 73.8983 55.93 73.8983 54.698C73.8983 53.378 74.2503 52.179 74.9543 51.101C75.6803 50.001 76.7583 49.132 78.1883 48.494C79.6403 47.834 81.4553 47.504 83.6333 47.504C85.0853 47.504 86.5153 47.68 87.9233 48.032C89.3313 48.362 90.5743 48.868 91.6523 49.55L90.0023 53.609C88.9243 52.993 87.8463 52.542 86.7683 52.256C85.6903 51.948 84.6343 51.794 83.6003 51.794C82.5663 51.794 81.7193 51.915 81.0593 52.157C80.3993 52.399 79.9263 52.718 79.6403 53.114C79.3543 53.488 79.2113 53.928 79.2113 54.434C79.2113 55.028 79.4533 55.512 79.9373 55.886C80.4213 56.238 81.0593 56.524 81.8513 56.744C82.6433 56.964 83.5123 57.184 84.4583 57.404C85.4263 57.624 86.3833 57.877 87.3293 58.163C88.2973 58.449 89.1773 58.834 89.9693 59.318C90.7613 59.802 91.3993 60.44 91.8833 61.232C92.3893 62.024 92.6423 63.025 92.6423 64.235C92.6423 65.533 92.2793 66.721 91.5533 67.799C90.8273 68.877 89.7383 69.746 88.2863 70.406C86.8563 71.066 85.0413 71.396 82.8413 71.396Z" fill="white"/>
</svg>
