<svg width="112" height="85" viewBox="0 0 112 85" fill="none" xmlns="http://www.w3.org/2000/svg">
<g clip-path="url(#clip0_133_439)">
<path d="M49.1589 33.7222L58.1705 41.5556M43.1512 10.2222H37.1435C35.5501 10.2222 34.022 10.7724 32.8954 11.7518C31.7687 12.7311 31.1357 14.0594 31.1357 15.4444V46.7778C31.1357 48.1628 31.7687 49.4911 32.8954 50.4704C34.022 51.4498 35.5501 52 37.1435 52H67.1821C68.7755 52 70.3036 51.4498 71.4302 50.4704C72.5569 49.4911 73.1899 48.1628 73.1899 46.7778V44.1667L43.1512 10.2222ZM43.1512 10.2222C43.1512 11.6072 43.7842 12.9355 44.9108 13.9149C46.0375 14.8942 47.5656 15.4444 49.1589 15.4444H55.1667C56.76 15.4444 58.2881 14.8942 59.4148 13.9149C60.5414 12.9355 61.1744 11.6072 61.1744 10.2222H43.1512ZM43.1512 10.2222C43.1512 8.8372 43.7842 7.50891 44.9108 6.52955C46.0375 5.5502 47.5656 5 49.1589 5H55.1667C56.76 5 58.2881 5.5502 59.4148 6.52955C60.5414 7.50891 61.1744 8.8372 61.1744 10.2222H43.1512ZM61.1744 10.2222H67.1821C68.7755 10.2222 70.3036 10.7724 71.4302 11.7518C72.5569 12.7311 73.1899 14.0594 73.1899 15.4444V23.2778L61.1744 10.2222ZM79.1976 33.7222H49.1589H79.1976ZM49.1589 33.7222L58.1705 25.8889L49.1589 33.7222Z" stroke="white" stroke-width="3" stroke-linecap="round" stroke-linejoin="round"/>
<path d="M10.4876 73.154C9.62891 73.154 8.85891 72.9767 8.17757 72.622C7.50557 72.258 6.97357 71.7633 6.58157 71.138C6.18957 70.5033 5.99357 69.7847 5.99357 68.982C5.99357 68.17 6.18957 67.4513 6.58157 66.826C6.97357 66.1913 7.50557 65.6967 8.17757 65.342C8.85891 64.978 9.62891 64.796 10.4876 64.796C11.2436 64.796 11.9062 64.9127 12.4756 65.146C13.0542 65.37 13.5489 65.7433 13.9596 66.266L12.5316 67.568C12.2609 67.2413 11.9622 66.9987 11.6356 66.84C11.3089 66.6813 10.9542 66.602 10.5716 66.602C10.1142 66.602 9.70824 66.7047 9.35357 66.91C8.99891 67.106 8.71891 67.3813 8.51357 67.736C8.31757 68.0907 8.21957 68.506 8.21957 68.982C8.21957 69.4487 8.31757 69.8593 8.51357 70.214C8.71891 70.5687 8.99891 70.8487 9.35357 71.054C9.70824 71.25 10.1142 71.348 10.5716 71.348C10.9542 71.348 11.3089 71.2687 11.6356 71.11C11.9622 70.9513 12.2609 70.7087 12.5316 70.382L13.9596 71.684C13.5489 72.1973 13.0542 72.5707 12.4756 72.804C11.9062 73.0373 11.2436 73.154 10.4876 73.154ZM15.3452 73V64.95H17.5572V71.278H21.4912V73H15.3452ZM22.687 73V64.95H24.899V73H22.687ZM27.0347 73V64.95H30.7027C31.4494 64.95 32.0887 65.0713 32.6207 65.314C33.162 65.5473 33.582 65.8833 33.8807 66.322C34.1794 66.7607 34.3287 67.2927 34.3287 67.918C34.3287 68.5247 34.1794 69.052 33.8807 69.5C33.582 69.948 33.162 70.2887 32.6207 70.522C32.0887 70.7553 31.4494 70.872 30.7027 70.872H28.2527L29.2467 69.906V73H27.0347ZM29.2467 70.158L28.4347 69.164H30.5487C31.062 69.164 31.4494 69.0567 31.7107 68.842C31.972 68.618 32.1027 68.31 32.1027 67.918C32.1027 67.5167 31.972 67.2087 31.7107 66.994C31.4494 66.7793 31.062 66.672 30.5487 66.672H28.4347L29.2467 65.678V70.158ZM35.9488 73V64.95H40.0648C41.1288 64.95 41.9221 65.146 42.4448 65.538C42.9768 65.93 43.2428 66.4387 43.2428 67.064C43.2428 67.68 43.0188 68.1793 42.5708 68.562C42.1321 68.9447 41.5161 69.136 40.7228 69.136L40.9468 68.604C41.7774 68.604 42.4354 68.7953 42.9208 69.178C43.4061 69.5513 43.6488 70.088 43.6488 70.788C43.6488 71.4787 43.3641 72.02 42.7948 72.412C42.2254 72.804 41.3901 73 40.2888 73H35.9488ZM38.1328 71.446H40.1348C40.5548 71.446 40.8721 71.3713 41.0868 71.222C41.3108 71.0727 41.4228 70.8533 41.4228 70.564C41.4228 70.2653 41.3108 70.046 41.0868 69.906C40.8721 69.7567 40.5548 69.682 40.1348 69.682H37.9088V68.198H39.7848C40.1954 68.198 40.5034 68.128 40.7088 67.988C40.9234 67.848 41.0308 67.638 41.0308 67.358C41.0308 67.078 40.9234 66.868 40.7088 66.728C40.5034 66.5787 40.1954 66.504 39.7848 66.504H38.1328V71.446ZM49.0976 73.154C48.2296 73.154 47.4549 72.9767 46.7736 72.622C46.0923 72.258 45.5556 71.7587 45.1636 71.124C44.7716 70.4893 44.5756 69.7707 44.5756 68.968C44.5756 68.1653 44.7716 67.4513 45.1636 66.826C45.5556 66.2007 46.0923 65.706 46.7736 65.342C47.4549 64.978 48.2296 64.796 49.0976 64.796C49.9656 64.796 50.7403 64.978 51.4216 65.342C52.1029 65.706 52.6396 66.2007 53.0316 66.826C53.4236 67.4513 53.6196 68.1653 53.6196 68.968C53.6196 69.7707 53.4236 70.4893 53.0316 71.124C52.6396 71.7587 52.1029 72.258 51.4216 72.622C50.7403 72.9767 49.9656 73.154 49.0976 73.154ZM49.0976 71.348C49.5456 71.348 49.9376 71.25 50.2736 71.054C50.6189 70.8487 50.8896 70.564 51.0856 70.2C51.2816 69.836 51.3796 69.43 51.3796 68.982C51.3796 68.5153 51.2816 68.1047 51.0856 67.75C50.8896 67.3953 50.6189 67.1153 50.2736 66.91C49.9376 66.7047 49.5456 66.602 49.0976 66.602C48.6589 66.602 48.2669 66.7047 47.9216 66.91C47.5763 67.1153 47.3009 67.3953 47.0956 67.75C46.8996 68.1047 46.8016 68.5107 46.8016 68.968C46.8016 69.4253 46.8996 69.836 47.0956 70.2C47.3009 70.564 47.5763 70.8487 47.9216 71.054C48.2669 71.25 48.6589 71.348 49.0976 71.348ZM53.8444 73L57.4564 64.95H59.6404L63.2664 73H61.0824L58.1844 66.014H58.9264L55.9864 73H53.8444ZM55.8184 71.404L56.3924 69.808H60.3684L60.9424 71.404H55.8184ZM64.2222 73V64.95H67.8902C68.6369 64.95 69.2762 65.0713 69.8082 65.314C70.3495 65.5473 70.7695 65.8833 71.0682 66.322C71.3669 66.7607 71.5162 67.2927 71.5162 67.918C71.5162 68.5247 71.3669 69.0473 71.0682 69.486C70.7695 69.9247 70.3495 70.2607 69.8082 70.494C69.2762 70.7273 68.6369 70.844 67.8902 70.844H65.4402L66.4342 69.906V73H64.2222ZM69.2902 73L67.2602 70.074H69.6122L71.6702 73H69.2902ZM66.4342 70.158L65.6222 69.164H67.7362C68.2495 69.164 68.6369 69.0567 68.8982 68.842C69.1595 68.618 69.2902 68.31 69.2902 67.918C69.2902 67.5167 69.1595 67.2087 68.8982 66.994C68.6369 66.7793 68.2495 66.672 67.7362 66.672H65.6222L66.4342 65.678V70.158ZM73.232 73V64.95H77.026C77.95 64.95 78.7526 65.1133 79.434 65.44C80.1246 65.7667 80.6566 66.2333 81.03 66.84C81.4126 67.4373 81.604 68.1513 81.604 68.982C81.604 69.8033 81.4126 70.5173 81.03 71.124C80.6566 71.7213 80.1246 72.1833 79.434 72.51C78.7526 72.8367 77.95 73 77.026 73H73.232ZM75.444 71.264H76.956C77.4506 71.264 77.8753 71.1753 78.23 70.998C78.594 70.8207 78.874 70.564 79.07 70.228C79.266 69.8827 79.364 69.4673 79.364 68.982C79.364 68.4873 79.266 68.072 79.07 67.736C78.874 67.3907 78.594 67.1293 78.23 66.952C77.8753 66.7747 77.4506 66.686 76.956 66.686H75.444V71.264ZM83.9151 73.112C83.5231 73.112 83.2011 72.986 82.9491 72.734C82.6971 72.482 82.5711 72.1833 82.5711 71.838C82.5711 71.4833 82.6971 71.1893 82.9491 70.956C83.2011 70.7133 83.5231 70.592 83.9151 70.592C84.3071 70.592 84.6244 70.7133 84.8671 70.956C85.1191 71.1893 85.2451 71.4833 85.2451 71.838C85.2451 72.1833 85.1191 72.482 84.8671 72.734C84.6244 72.986 84.3071 73.112 83.9151 73.112ZM89.0314 73.154C88.4341 73.154 87.8927 73.0513 87.4074 72.846C86.9314 72.6407 86.5441 72.3373 86.2454 71.936L87.5334 70.564C87.7294 70.8253 87.9441 71.0307 88.1774 71.18C88.4107 71.32 88.6627 71.39 88.9334 71.39C89.6147 71.39 89.9554 70.984 89.9554 70.172V66.658H87.1414V64.95H92.1534V69.962C92.1534 71.0447 91.8827 71.8473 91.3414 72.37C90.8094 72.8927 90.0394 73.154 89.0314 73.154ZM100.546 70.55C100.546 71.054 100.401 71.502 100.112 71.894C99.832 72.286 99.4213 72.594 98.88 72.818C98.348 73.042 97.69 73.154 96.906 73.154C96.262 73.154 95.6273 73.0747 95.002 72.916C94.386 72.7573 93.8866 72.5473 93.504 72.286L94.274 70.648C94.638 70.8907 95.0626 71.082 95.548 71.222C96.0333 71.362 96.528 71.432 97.032 71.432C97.5266 71.432 97.872 71.362 98.068 71.222C98.264 71.082 98.362 70.9187 98.362 70.732C98.362 70.5453 98.2733 70.396 98.096 70.284C97.928 70.172 97.704 70.0833 97.424 70.018C97.1533 69.9433 96.85 69.8733 96.514 69.808C96.1873 69.7427 95.856 69.6587 95.52 69.556C95.1933 69.4533 94.89 69.318 94.61 69.15C94.3393 68.9727 94.1153 68.744 93.938 68.464C93.77 68.1747 93.686 67.8153 93.686 67.386C93.686 66.882 93.8306 66.4387 94.12 66.056C94.4186 65.664 94.8386 65.356 95.38 65.132C95.9213 64.908 96.5653 64.796 97.312 64.796C97.816 64.796 98.3293 64.852 98.852 64.964C99.3746 65.076 99.832 65.2533 100.224 65.496L99.51 67.134C99.146 66.91 98.768 66.7513 98.376 66.658C97.9933 66.5647 97.6106 66.518 97.228 66.518C96.7613 66.518 96.4206 66.588 96.206 66.728C95.9913 66.868 95.884 67.0453 95.884 67.26C95.884 67.4467 95.968 67.596 96.136 67.708C96.304 67.82 96.5233 67.9133 96.794 67.988C97.074 68.0533 97.382 68.1187 97.718 68.184C98.054 68.2493 98.3853 68.3333 98.712 68.436C99.0386 68.5293 99.342 68.66 99.622 68.828C99.902 68.996 100.126 69.22 100.294 69.5C100.462 69.7707 100.546 70.1207 100.546 70.55Z" fill="white"/>
</g>
<defs>
<clipPath id="clip0_133_439">
<rect width="111" height="85" fill="white" transform="translate(0.23877)"/>
</clipPath>
</defs>
</svg>
