<svg width="75" height="75" viewBox="0 0 75 75" fill="none" xmlns="http://www.w3.org/2000/svg">
<path d="M60.9375 9.375H14.0625C11.4737 9.375 9.375 11.4737 9.375 14.0625V60.9375C9.375 63.5263 11.4737 65.625 14.0625 65.625H60.9375C63.5263 65.625 65.625 63.5263 65.625 60.9375V14.0625C65.625 11.4737 63.5263 9.375 60.9375 9.375Z" stroke="white" stroke-width="4" stroke-linecap="round" stroke-linejoin="round"/>
<path d="M32.8125 26.5625H20.3125V48.4375H32.0312M20.3125 37.5H32.0312M40.625 29.6875V48.4375V38.2812C40.625 36.4164 41.3658 34.628 42.6844 33.3094C44.003 31.9908 45.7914 31.25 47.6562 31.25C49.5211 31.25 51.3095 31.9908 52.6281 33.3094C53.9467 34.628 54.6875 36.4164 54.6875 38.2812V48.4375" stroke="white" stroke-width="4" stroke-linecap="round" stroke-linejoin="round"/>
</svg>
