<svg width="110" height="41" viewBox="0 0 110 41" fill="none" xmlns="http://www.w3.org/2000/svg">
<g clip-path="url(#clip0_133_412)">
<path d="M74.1411 0.994385H109.766L106.525 35.7405L91.914 39.6691L77.3867 35.7405L74.1411 0.994385V0.994385ZM86.0682 16.7044L85.6764 12.3261L102.738 12.3304L103.13 8.10712L80.7751 8.10281L81.9574 21.0073H97.4381L96.8877 26.5279L91.9525 27.8231L86.9379 26.5215L86.6186 23.1222H82.1929L82.7524 29.8412L91.9525 32.1777L101.076 29.8541L102.339 16.7065H86.0682V16.7044V16.7044Z" fill="white"/>
<path fill-rule="evenodd" clip-rule="evenodd" d="M8.48341 0C4.27763 0 0.895129 3.46583 0.895129 7.7116C0.895129 10.2928 2.14638 12.5854 4.06966 13.9849C3.07842 14.7143 2.27496 15.6617 1.72368 16.7511C1.1724 17.8405 0.88863 19.0416 0.895129 20.2581C0.895129 22.8411 2.14638 25.1319 4.06966 26.5314C3.07842 27.2609 2.27496 28.2082 1.72368 29.2976C1.1724 30.387 0.88863 31.5882 0.895129 32.8047C0.895129 37.0505 4.27763 40.5163 8.48341 40.5163C12.6875 40.5163 16.0717 37.0505 16.0717 32.8047V26.2849C17.4008 27.3735 19.0763 27.9702 20.8068 27.9714C25.0126 27.9697 28.3951 24.5039 28.3951 20.2581C28.402 19.0415 28.1184 17.8403 27.5671 16.7508C27.0158 15.6614 26.2121 14.714 25.2206 13.9849C26.2118 13.2554 27.0153 12.308 27.5666 11.2186C28.1179 10.1292 28.4016 8.92813 28.3951 7.7116C28.3951 3.46583 25.0126 0 20.8068 0H8.48341ZM3.74653 7.7116C3.74653 5.02571 5.88122 2.87497 8.48341 2.87497H13.2186V12.5482H8.48341C5.88122 12.5482 3.74653 10.3958 3.74653 7.7116ZM20.8068 12.5465H16.0717V2.87328H20.8068C23.4107 2.87328 25.5437 5.02571 25.5437 7.7116C25.5437 10.3958 23.4107 12.5465 20.8068 12.5465ZM3.74825 20.2581C3.74825 17.5739 5.88294 15.4215 8.48513 15.4215H13.2203V25.0948H8.48341C5.8795 25.0948 3.74653 22.9423 3.74653 20.2581H3.74825ZM16.0717 20.2581C16.0717 17.5739 18.2064 15.4215 20.8086 15.4215C23.4125 15.4215 25.5454 17.5723 25.5454 20.2581C25.5454 22.9423 23.4125 25.0948 20.8086 25.0948C18.2064 25.0948 16.0734 22.944 16.0734 20.2581H16.0717ZM3.74825 32.8047C3.74825 30.1205 5.88294 27.9697 8.48513 27.9697H13.2203V32.8047C13.2203 35.4906 11.089 37.6413 8.48513 37.6413C5.88294 37.6413 3.74825 35.4906 3.74825 32.8047Z" fill="white"/>
<path d="M43.5229 20.1367H40.2979V17.7817H49.7029V20.1367H46.4929V28.2817H43.5229V20.1367ZM55.9579 28.4917C54.8479 28.4917 53.8479 28.2567 52.9579 27.7867C52.0779 27.3167 51.3829 26.6667 50.8729 25.8367C50.3729 25.0067 50.1229 24.0717 50.1229 23.0317C50.1229 21.9917 50.3729 21.0567 50.8729 20.2267C51.3829 19.3967 52.0779 18.7467 52.9579 18.2767C53.8479 17.8067 54.8479 17.5717 55.9579 17.5717C57.0679 17.5717 58.0629 17.8067 58.9429 18.2767C59.8329 18.7467 60.5279 19.3967 61.0279 20.2267C61.5379 21.0567 61.7929 21.9917 61.7929 23.0317C61.7929 24.0717 61.5379 25.0067 61.0279 25.8367C60.5279 26.6667 59.8329 27.3167 58.9429 27.7867C58.0629 28.2567 57.0679 28.4917 55.9579 28.4917ZM55.9579 26.0317C56.4879 26.0317 56.9679 25.9067 57.3979 25.6567C57.8279 25.4067 58.1679 25.0567 58.4179 24.6067C58.6679 24.1467 58.7929 23.6217 58.7929 23.0317C58.7929 22.4417 58.6679 21.9217 58.4179 21.4717C58.1679 21.0117 57.8279 20.6567 57.3979 20.4067C56.9679 20.1567 56.4879 20.0317 55.9579 20.0317C55.4279 20.0317 54.9479 20.1567 54.5179 20.4067C54.0879 20.6567 53.7479 21.0117 53.4979 21.4717C53.2479 21.9217 53.1229 22.4417 53.1229 23.0317C53.1229 23.6217 53.2479 24.1467 53.4979 24.6067C53.7479 25.0567 54.0879 25.4067 54.5179 25.6567C54.9479 25.9067 55.4279 26.0317 55.9579 26.0317Z" fill="white"/>
</g>
<defs>
<clipPath id="clip0_133_412">
<rect width="108.871" height="40.5163" fill="white" transform="translate(0.89502)"/>
</clipPath>
</defs>
</svg>
