<svg width="76" height="75" viewBox="0 0 76 75" fill="none" xmlns="http://www.w3.org/2000/svg">
<g clip-path="url(#clip0_133_423)">
<path d="M42.1566 17.5031C40.1941 12.7281 40.4691 7.35625 43.3035 3.03438L45.4223 0C41.5035 7.34375 45.2348 16.3625 51.2348 21.0906C52.8403 22.3472 54.6301 23.3486 56.541 24.0594C57.0535 24.2469 57.6348 24.4469 58.166 24.5813C64.8723 26.2688 70.3379 25.1031 73.591 20.2406C73.491 20.3906 73.3629 20.6281 73.2004 20.9281C71.7504 23.6156 67.5066 31.4813 55.2004 29.0125C54.966 28.9656 54.741 28.8875 54.516 28.8156L54.316 28.7469L54.1723 28.7C54.106 28.6771 54.0393 28.6552 53.9723 28.6344C53.79 28.5716 53.6087 28.506 53.4285 28.4375C48.4754 26.55 44.2285 22.575 42.1566 17.5031V17.5031Z" fill="white"/>
<path d="M25.9656 9.26874C21.1625 16.4406 21.425 26.0437 25.1719 33.6312C25.8646 35.0431 26.6605 36.402 27.5531 37.6969C28.2062 38.675 28.925 39.7594 29.7656 40.5156C30.1125 40.9125 30.475 41.2969 30.8437 41.675L31.0562 41.8937L31.1281 41.9656C31.5012 42.3428 31.8836 42.7106 32.275 43.0687L32.2781 43.0719L32.2844 43.0781C32.7567 43.5055 33.2413 43.9192 33.7375 44.3187L33.8625 44.4187C34.3 44.7687 34.7468 45.1125 35.2062 45.4406L35.225 45.4531L35.2469 45.4687C35.3937 45.575 35.5437 45.6781 35.6937 45.7781L35.8594 45.8906C35.9574 45.9555 36.0543 46.0222 36.15 46.0906C36.4781 46.3094 36.8094 46.5187 37.1469 46.725L37.2406 46.7781L37.2875 46.8094C37.6494 47.0252 38.0151 47.2346 38.3844 47.4375L38.4812 47.4875L38.6062 47.5562C38.7687 47.6437 38.9312 47.7344 39.1 47.8187L39.1937 47.8656C39.6771 48.1117 40.1669 48.3451 40.6625 48.5656L40.7625 48.6062C41.2276 48.8111 41.6975 49.0049 42.1719 49.1875L42.2656 49.2219C42.5875 49.3469 42.9094 49.4594 43.2344 49.5719L43.3969 49.6281L43.6719 49.7187C43.7937 49.7562 43.9156 49.8 44.0344 49.8406C44.375 49.9594 44.7156 50.075 45.0719 50.1375C69.8656 54.4 75.5906 34.5875 75.5906 34.5875C70.4312 42.3 60.4375 45.9812 49.775 43.1062C49.3028 42.9772 48.8339 42.8365 48.3687 42.6844C48.2428 42.6455 48.1178 42.6038 47.9937 42.5594L47.9469 42.5437C47.6176 42.4333 47.2905 42.3166 46.9656 42.1937L46.9562 42.1875C46.417 41.9834 45.8835 41.7646 45.3562 41.5312L45.1812 41.4531C44.5668 41.1753 43.9623 40.8762 43.3687 40.5562L43.2375 40.4875L42.8625 40.2875C42.5201 40.0962 42.1815 39.8982 41.8468 39.6937C41.1858 39.2901 40.5396 38.8627 39.9094 38.4125C39.4542 38.0839 39.0072 37.7442 38.5687 37.3937L38.4594 37.3031C38.3955 37.2514 38.3319 37.1993 38.2687 37.1469C33.6 33.3219 29.9 28.0937 28.1437 22.1687C26.3 16.0187 26.6969 9.11874 29.8906 3.51874L25.9656 9.26874Z" fill="white"/>
<path d="M5.35318 17.6156C-1.28432 27.5219 -0.459318 40.4125 4.61256 50.9375C4.70631 51.1406 4.80943 51.3406 4.90943 51.5375L4.98443 51.6875L5.07818 51.8719C5.15678 52.0357 5.24015 52.1973 5.32818 52.3563L5.36881 52.4344L5.58756 52.8406L5.63443 52.925C5.79068 53.2125 5.95318 53.5 6.11881 53.7875L6.17193 53.8813C6.42236 54.3181 6.68391 54.7484 6.95631 55.1719L7.01256 55.2656L7.19693 55.5563C7.45943 55.9625 7.72818 56.3719 8.00943 56.775V56.7781C8.01609 56.788 8.02339 56.7974 8.03131 56.8063L8.10631 56.9094L8.16881 56.9969C8.41256 57.3406 8.65943 57.6844 8.91256 58.0219L9.19381 58.3906C9.80635 59.1844 10.4399 59.9618 11.0938 60.7219L11.1126 60.7438L11.1282 60.7594L11.1501 60.7844C11.813 61.5313 12.4988 62.2577 13.2063 62.9625L13.3001 63.0563L13.5219 63.275C13.8761 63.6212 14.2366 63.9608 14.6032 64.2938L14.7063 64.3875L14.7876 64.4563C15.1787 64.8054 15.5745 65.1492 15.9751 65.4875L16.1501 65.6344C16.4157 65.8531 16.6844 66.0719 16.9563 66.2844L17.3844 66.625C17.6844 66.8531 17.9844 67.0781 18.2876 67.2969L18.3376 67.3344L18.6188 67.5406L18.7063 67.6031C18.9813 67.8031 19.2594 67.9906 19.5407 68.1781L19.5844 68.2094C19.7105 68.2942 19.8356 68.3807 19.9594 68.4688C20.4811 68.8112 21.0093 69.1435 21.5438 69.4656L21.7126 69.5656C22.1857 69.8451 22.6639 70.116 23.1469 70.3781L23.3126 70.4688L23.4969 70.5688C23.6813 70.6688 23.8626 70.7688 24.0501 70.8656L24.1282 70.9031L24.2219 70.95L24.3282 71.0031C24.3907 71.0344 24.4563 71.0656 24.5219 71.1031C24.9094 71.2938 25.2969 71.4813 25.6907 71.6656L25.8376 71.7313L25.9376 71.7781C26.9141 72.2228 27.9075 72.6294 28.9157 72.9969L28.9469 73.0063L29.0782 73.0563C29.7906 73.3125 30.5096 73.5501 31.2344 73.7688C31.5969 73.8906 31.9626 74.0094 32.3376 74.0812C64.4532 80.1625 73.7813 54.05 73.7813 54.05C65.9469 64.6438 52.0407 67.4406 38.8626 64.3281C38.3667 64.2078 37.8766 64.065 37.3938 63.9L37.0251 63.7844C36.5501 63.6344 36.0782 63.4719 35.6094 63.3063L35.4157 63.2344C34.9938 63.0781 34.5813 62.9219 34.1657 62.7531L33.8157 62.6094C33.3632 62.4239 32.9141 62.2302 32.4688 62.0281L32.3251 61.9656C31.9016 61.769 31.4808 61.5669 31.0626 61.3594L30.9344 61.2906C30.8676 61.2588 30.8009 61.2265 30.7344 61.1938L30.0657 60.8406L29.8532 60.7281C29.7836 60.6902 29.7138 60.6527 29.6438 60.6156L29.2688 60.4094C28.9126 60.2125 28.5626 60.0031 28.2126 59.7938L28.0782 59.7156L27.8594 59.5906C27.3154 59.255 26.7778 58.9091 26.2469 58.5531L26.1126 58.4594C24.7789 57.5701 23.5005 56.6006 22.2844 55.5563C21.9129 55.2421 21.5462 54.9223 21.1844 54.5969L21.1344 54.55C20.6594 54.113 20.1926 53.6671 19.7344 53.2125C19.4698 52.9511 19.2093 52.6854 18.9532 52.4156L18.8469 52.3094C18.4422 51.8864 18.0463 51.4551 17.6594 51.0156L17.6407 50.9969L17.6344 50.9875C17.3032 50.6125 16.9782 50.225 16.6594 49.8375L16.4032 49.5219C16.0761 49.1162 15.7562 48.7047 15.4438 48.2875C15.1688 47.9125 14.8969 47.5438 14.6313 47.1656C7.31881 36.8094 4.69068 22.5219 10.5376 10.7906L5.35318 17.6156Z" fill="white"/>
</g>
<defs>
<clipPath id="clip0_133_423">
<rect width="75" height="75" fill="white" transform="translate(0.59082)"/>
</clipPath>
</defs>
</svg>
