<svg width="147" height="87" viewBox="0 0 147 87" fill="none" xmlns="http://www.w3.org/2000/svg">
<path d="M29.2951 29.264C28.2711 29.264 27.3431 29.088 26.5111 28.736C25.6951 28.384 25.0311 27.864 24.5191 27.176L26.7271 24.824C27.0631 25.272 27.4311 25.624 27.8311 25.88C28.2311 26.12 28.6631 26.24 29.1271 26.24C30.2951 26.24 30.8791 25.544 30.8791 24.152V18.128H26.0551V15.2H34.6471V23.792C34.6471 25.648 34.1831 27.024 33.2551 27.92C32.3431 28.816 31.0231 29.264 29.2951 29.264ZM44.9544 29.264C43.4664 29.264 42.1384 28.96 40.9704 28.352C39.8024 27.728 38.8824 26.872 38.2104 25.784C37.5384 24.696 37.2024 23.464 37.2024 22.088C37.2024 20.712 37.5384 19.488 38.2104 18.416C38.8824 17.344 39.8024 16.496 40.9704 15.872C42.1384 15.248 43.4664 14.936 44.9544 14.936C46.4424 14.936 47.7704 15.248 48.9384 15.872C50.1064 16.496 51.0264 17.344 51.6984 18.416C52.3704 19.488 52.7064 20.712 52.7064 22.088C52.7064 23.464 52.3704 24.696 51.6984 25.784C51.0264 26.872 50.1064 27.728 48.9384 28.352C47.7704 28.96 46.4424 29.264 44.9544 29.264ZM49.5864 32.288C48.7864 32.288 48.0504 32.176 47.3784 31.952C46.7224 31.744 46.0504 31.368 45.3624 30.824C44.6904 30.296 43.9224 29.576 43.0584 28.664L47.0424 27.704C47.3944 28.184 47.6984 28.56 47.9544 28.832C48.2264 29.104 48.4984 29.296 48.7704 29.408C49.0424 29.52 49.3384 29.576 49.6584 29.576C50.4264 29.576 51.1224 29.264 51.7464 28.64L53.4504 30.632C52.9864 31.192 52.4264 31.608 51.7704 31.88C51.1144 32.152 50.3864 32.288 49.5864 32.288ZM44.9544 26.168C45.7224 26.168 46.3944 26 46.9704 25.664C47.5624 25.312 48.0264 24.824 48.3624 24.2C48.6984 23.576 48.8664 22.872 48.8664 22.088C48.8664 21.304 48.6984 20.608 48.3624 20C48.0264 19.392 47.5624 18.912 46.9704 18.56C46.3944 18.208 45.7224 18.032 44.9544 18.032C44.2024 18.032 43.5304 18.208 42.9384 18.56C42.3464 18.912 41.8744 19.392 41.5224 20C41.1864 20.608 41.0184 21.304 41.0184 22.088C41.0184 22.872 41.1864 23.576 41.5224 24.2C41.8744 24.824 42.3464 25.312 42.9384 25.664C43.5304 26 44.2024 26.168 44.9544 26.168ZM61.774 29.264C60.414 29.264 59.246 29.016 58.27 28.52C57.294 28.024 56.542 27.312 56.014 26.384C55.502 25.44 55.246 24.328 55.246 23.048V15.2H59.038V22.928C59.038 24 59.278 24.808 59.758 25.352C60.238 25.896 60.926 26.168 61.822 26.168C62.718 26.168 63.398 25.896 63.862 25.352C64.326 24.808 64.558 24 64.558 22.928V15.2H68.302V23.048C68.302 24.328 68.046 25.44 67.534 26.384C67.022 27.312 66.278 28.024 65.302 28.52C64.326 29.016 63.15 29.264 61.774 29.264ZM75.2032 20.624H81.8752V23.384H75.2032V20.624ZM75.5872 26.096H82.9552V29H71.8432V15.2H82.6912V18.104H75.5872V26.096ZM85.7182 29V15.2H92.0062C93.2862 15.2 94.3822 15.408 95.2942 15.824C96.2222 16.224 96.9422 16.8 97.4542 17.552C97.9662 18.304 98.2222 19.216 98.2222 20.288C98.2222 21.328 97.9662 22.224 97.4542 22.976C96.9422 23.728 96.2222 24.304 95.2942 24.704C94.3822 25.104 93.2862 25.304 92.0062 25.304H87.8062L89.5102 23.696V29H85.7182ZM94.4062 29L90.9262 23.984H94.9582L98.4862 29H94.4062ZM89.5102 24.128L88.1182 22.424H91.7422C92.6222 22.424 93.2862 22.24 93.7342 21.872C94.1822 21.488 94.4062 20.96 94.4062 20.288C94.4062 19.6 94.1822 19.072 93.7342 18.704C93.2862 18.336 92.6222 18.152 91.7422 18.152H88.1182L89.5102 16.448V24.128ZM104.385 29V23.264L105.081 25.568L98.8171 15.2H102.825L107.433 22.808H105.345L109.953 15.2H113.769L107.481 25.568L108.177 23.264V29H104.385ZM114.228 23.744V20.744H121.02V23.744H114.228ZM30.8627 52V38.2H37.1507C38.4307 38.2 39.5267 38.408 40.4387 38.824C41.3667 39.224 42.0867 39.8 42.5987 40.552C43.1107 41.304 43.3667 42.216 43.3667 43.288C43.3667 44.328 43.1107 45.232 42.5987 46C42.0867 46.768 41.3667 47.352 40.4387 47.752C39.5267 48.152 38.4307 48.352 37.1507 48.352H32.9507L34.6547 46.696V52H30.8627ZM34.6547 47.128L33.2627 45.424H36.8867C37.7667 45.424 38.4307 45.24 38.8787 44.872C39.3267 44.488 39.5507 43.96 39.5507 43.288C39.5507 42.6 39.3267 42.072 38.8787 41.704C38.4307 41.336 37.7667 41.152 36.8867 41.152H33.2627L34.6547 39.448V47.128ZM52.8879 52.264C51.3999 52.264 50.0719 51.96 48.9039 51.352C47.7359 50.728 46.8159 49.872 46.1439 48.784C45.4719 47.696 45.1359 46.464 45.1359 45.088C45.1359 43.712 45.4719 42.488 46.1439 41.416C46.8159 40.344 47.7359 39.496 48.9039 38.872C50.0719 38.248 51.3999 37.936 52.8879 37.936C54.3759 37.936 55.7039 38.248 56.8719 38.872C58.0399 39.496 58.9599 40.344 59.6319 41.416C60.3039 42.488 60.6399 43.712 60.6399 45.088C60.6399 46.464 60.3039 47.696 59.6319 48.784C58.9599 49.872 58.0399 50.728 56.8719 51.352C55.7039 51.96 54.3759 52.264 52.8879 52.264ZM52.8879 49.168C53.6559 49.168 54.3279 49 54.9039 48.664C55.4959 48.312 55.9599 47.824 56.2959 47.2C56.6319 46.576 56.7999 45.88 56.7999 45.112C56.7999 44.312 56.6319 43.608 56.2959 43C55.9599 42.392 55.4959 41.912 54.9039 41.56C54.3279 41.208 53.6559 41.032 52.8879 41.032C52.1359 41.032 51.4639 41.208 50.8719 41.56C50.2799 41.912 49.8079 42.392 49.4559 43C49.1199 43.608 48.9519 44.304 48.9519 45.088C48.9519 45.872 49.1199 46.576 49.4559 47.2C49.8079 47.824 50.2799 48.312 50.8719 48.664C51.4639 49 52.1359 49.168 52.8879 49.168ZM63.3236 52V38.2H69.6116C70.8916 38.2 71.9876 38.408 72.8996 38.824C73.8276 39.224 74.5476 39.8 75.0596 40.552C75.5716 41.304 75.8276 42.216 75.8276 43.288C75.8276 44.328 75.5716 45.232 75.0596 46C74.5476 46.768 73.8276 47.352 72.8996 47.752C71.9876 48.152 70.8916 48.352 69.6116 48.352H65.4116L67.1156 46.696V52H63.3236ZM67.1156 47.128L65.7236 45.424H69.3476C70.2276 45.424 70.8916 45.24 71.3396 44.872C71.7876 44.488 72.0116 43.96 72.0116 43.288C72.0116 42.6 71.7876 42.072 71.3396 41.704C70.8916 41.336 70.2276 41.152 69.3476 41.152H65.7236L67.1156 39.448V47.128ZM84.9889 52.264C83.6289 52.264 82.4609 52.016 81.4849 51.52C80.5089 51.024 79.7569 50.312 79.2289 49.384C78.7169 48.44 78.4609 47.328 78.4609 46.048V38.2H82.2529V45.928C82.2529 47 82.4929 47.808 82.9729 48.352C83.4529 48.896 84.1409 49.168 85.0369 49.168C85.9329 49.168 86.6129 48.896 87.0769 48.352C87.5409 47.808 87.7729 47 87.7729 45.928V38.2H91.5169V46.048C91.5169 47.328 91.2609 48.44 90.7489 49.384C90.2369 50.312 89.4929 51.024 88.5169 51.52C87.5409 52.016 86.3649 52.264 84.9889 52.264ZM95.058 52V38.2H101.346C102.626 38.2 103.722 38.408 104.634 38.824C105.562 39.224 106.282 39.8 106.794 40.552C107.306 41.304 107.562 42.216 107.562 43.288C107.562 44.328 107.306 45.232 106.794 46C106.282 46.768 105.562 47.352 104.634 47.752C103.722 48.152 102.626 48.352 101.346 48.352H97.146L98.85 46.696V52H95.058ZM98.85 47.128L97.458 45.424H101.082C101.962 45.424 102.626 45.24 103.074 44.872C103.522 44.488 103.746 43.96 103.746 43.288C103.746 42.6 103.522 42.072 103.074 41.704C102.626 41.336 101.962 41.152 101.082 41.152H97.458L98.85 39.448V47.128ZM109.739 46.744V43.744H116.531V46.744H109.739ZM30.47 75.264C28.982 75.264 27.654 74.96 26.486 74.352C25.318 73.728 24.398 72.872 23.726 71.784C23.054 70.696 22.718 69.464 22.718 68.088C22.718 66.712 23.054 65.488 23.726 64.416C24.398 63.344 25.318 62.496 26.486 61.872C27.654 61.248 28.982 60.936 30.47 60.936C31.958 60.936 33.286 61.248 34.454 61.872C35.622 62.496 36.542 63.344 37.214 64.416C37.886 65.488 38.222 66.712 38.222 68.088C38.222 69.464 37.886 70.696 37.214 71.784C36.542 72.872 35.622 73.728 34.454 74.352C33.286 74.96 31.958 75.264 30.47 75.264ZM30.47 72.168C31.238 72.168 31.91 72 32.486 71.664C33.078 71.312 33.542 70.824 33.878 70.2C34.214 69.576 34.382 68.88 34.382 68.112C34.382 67.312 34.214 66.608 33.878 66C33.542 65.392 33.078 64.912 32.486 64.56C31.91 64.208 31.238 64.032 30.47 64.032C29.718 64.032 29.046 64.208 28.454 64.56C27.862 64.912 27.39 65.392 27.038 66C26.702 66.608 26.534 67.304 26.534 68.088C26.534 68.872 26.702 69.576 27.038 70.2C27.39 70.824 27.862 71.312 28.454 71.664C29.046 72 29.718 72.168 30.47 72.168ZM44.4226 75L38.4226 61.2H42.4546L47.5426 73.32H45.2146L50.3986 61.2H54.1666L48.1666 75H44.4226ZM59.2891 66.624H65.9611V69.384H59.2891V66.624ZM59.6731 72.096H67.0411V75H55.9291V61.2H66.7771V64.104H59.6731V72.096ZM69.8041 75V61.2H76.0921C77.3721 61.2 78.4681 61.408 79.3801 61.824C80.3081 62.224 81.0281 62.8 81.5401 63.552C82.0521 64.304 82.3081 65.216 82.3081 66.288C82.3081 67.328 82.0521 68.224 81.5401 68.976C81.0281 69.728 80.3081 70.304 79.3801 70.704C78.4681 71.104 77.3721 71.304 76.0921 71.304H71.8921L73.5961 69.696V75H69.8041ZM78.4921 75L75.0121 69.984H79.0441L82.5721 75H78.4921ZM73.5961 70.128L72.2041 68.424H75.8281C76.7081 68.424 77.3721 68.24 77.8201 67.872C78.2681 67.488 78.4921 66.96 78.4921 66.288C78.4921 65.6 78.2681 65.072 77.8201 64.704C77.3721 64.336 76.7081 64.152 75.8281 64.152H72.2041L73.5961 62.448V70.128ZM85.2494 75V61.2H89.0414V72.048H95.7854V75H85.2494ZM95.8651 75L102.057 61.2H105.801L112.017 75H108.273L103.305 63.024H104.577L99.5371 75H95.8651ZM99.2491 72.264L100.233 69.528H107.049L108.033 72.264H99.2491ZM116.08 75V69.264L116.776 71.568L110.512 61.2H114.52L119.128 68.808H117.04L121.648 61.2H125.464L119.176 71.568L119.872 69.264V75H116.08Z" fill="white"/>
</svg>
