<svg width="76" height="75" viewBox="0 0 76 75" fill="none" xmlns="http://www.w3.org/2000/svg">
<g clip-path="url(#clip0_133_400)">
<path fill-rule="evenodd" clip-rule="evenodd" d="M66.4083 21.0938V51.5625H61.7208V21.0938H52.3458C50.481 21.0938 48.6926 20.353 47.374 19.0343C46.0554 17.7157 45.3146 15.9273 45.3146 14.0625V4.6875H19.5333C18.2901 4.6875 17.0978 5.18136 16.2188 6.06044C15.3397 6.93951 14.8458 8.1318 14.8458 9.375V51.5625H10.1583V9.375C10.1583 6.8886 11.146 4.50403 12.9042 2.74587C14.6623 0.987721 17.0469 0 19.5333 0L45.3146 0L66.4083 21.0938ZM20.2411 71.6719C19.9301 71.0117 19.7532 70.2963 19.7208 69.5672H23.3021C23.3672 69.9332 23.5069 70.2818 23.7125 70.5915C23.9182 70.9012 24.1853 71.1652 24.4974 71.3672C24.8255 71.5969 25.2193 71.775 25.6693 71.9016C26.1146 72.0328 26.6114 72.0938 27.1646 72.0938C27.9333 72.0938 28.5755 71.9859 29.1005 71.7656C29.5785 71.5869 29.994 71.2725 30.2958 70.8609C30.5621 70.4583 30.6994 69.9842 30.6896 69.5016C30.7034 69.2082 30.6457 68.9159 30.5216 68.6497C30.3975 68.3835 30.2107 68.1515 29.9771 67.9734C29.5036 67.5984 28.7771 67.2984 27.8068 67.0687L24.9099 66.3984C24.017 66.2095 23.1627 65.8703 22.3833 65.3953C21.6944 64.9735 21.1261 64.3809 20.7333 63.675C20.3346 62.9189 20.1361 62.0733 20.1568 61.2188C20.1568 60.075 20.4568 59.0766 21.0474 58.2234C21.6474 57.375 22.4724 56.7141 23.5224 56.2453C24.5771 55.7766 25.7911 55.5469 27.1646 55.5469C28.5896 55.5469 29.8083 55.7812 30.8161 56.2594C31.8333 56.7375 32.6161 57.3797 33.1599 58.1812C33.7224 58.9781 34.0318 59.8641 34.0974 60.8344H30.5818C30.5015 60.3895 30.3078 59.973 30.0193 59.625C29.7111 59.251 29.3148 58.9595 28.8661 58.7766C28.316 58.5524 27.7256 58.4439 27.1318 58.4578C26.1193 58.4578 25.3177 58.6922 24.7318 59.1703C24.4562 59.3813 24.2341 59.6542 24.0834 59.9668C23.9328 60.2795 23.8578 60.6233 23.8646 60.9703C23.8646 61.5375 24.0896 62.0016 24.5396 62.3766C25.0996 62.7915 25.7475 63.0722 26.4333 63.1969L29.3443 63.8672C30.3614 64.1016 31.2474 64.4297 31.9974 64.8563C32.7207 65.2514 33.327 65.8302 33.7552 66.5344C34.1771 67.2281 34.388 68.1047 34.388 69.1594C34.388 70.3172 34.0927 71.3437 33.5068 72.2344C32.8828 73.1516 32.0047 73.8667 30.9802 74.2922C29.8833 74.7844 28.5427 75.0328 26.9583 75.0328C25.7677 75.0328 24.7271 74.8922 23.8411 74.6109C23.0248 74.366 22.2638 73.9648 21.6005 73.4297C21.0282 72.9465 20.5649 72.3473 20.2411 71.6719V71.6719ZM5.69113 71.5172C5.43248 70.8182 5.30227 70.0781 5.30675 69.3328H8.888C8.89778 69.7768 9.01693 70.2115 9.23488 70.5984C9.45071 70.9664 9.76308 71.2684 10.1382 71.4717C10.5133 71.6749 10.9368 71.7717 11.363 71.7516C12.2536 71.7516 12.9099 71.4937 13.3411 70.9828C13.7677 70.4672 13.9833 69.7406 13.9833 68.7984V55.9313H17.6911V68.7047C17.6911 70.7672 17.1333 72.3328 16.0177 73.4156C14.9068 74.4937 13.3693 75.0328 11.4005 75.0328C10.4936 75.0492 9.5913 74.8999 8.738 74.5922C8.02014 74.3179 7.36953 73.8927 6.83019 73.3453C6.33035 72.8196 5.94279 72.1976 5.69113 71.5172V71.5172ZM48.3052 64.0875V66.5344C48.3052 67.7344 48.1224 68.7375 47.7568 69.5391C47.4453 70.2805 46.9198 70.9121 46.2474 71.3531C45.5834 71.7539 44.8196 71.9586 44.0443 71.9437C43.2691 71.9571 42.5057 71.7525 41.8411 71.3531C41.1737 70.909 40.652 70.278 40.3411 69.5391C39.9475 68.5877 39.7605 67.5635 39.7927 66.5344V64.0875C39.7927 62.8781 39.9755 61.8797 40.3411 61.0828C40.652 60.3438 41.1737 59.7129 41.8411 59.2688C42.5027 58.8609 43.2672 58.6511 44.0443 58.6641C44.8739 58.6641 45.6052 58.8656 46.2474 59.2688C46.9198 59.7098 47.4453 60.3414 47.7568 61.0828C48.1224 61.8797 48.3052 62.8781 48.3052 64.0875ZM52.0693 66.5203V64.1156C52.0693 62.3484 51.7458 60.8297 51.1083 59.5547C50.5051 58.3141 49.5411 57.2847 48.3427 56.6016C47.1568 55.9172 45.7224 55.5703 44.0489 55.5703C42.3802 55.5703 40.9458 55.9172 39.7364 56.6016C38.5376 57.2785 37.5743 58.3056 36.9755 59.5453C36.3333 60.8156 36.0146 62.3391 36.0146 64.1156V66.5203C36.0146 68.2781 36.3333 69.7969 36.9755 71.0812C37.6177 72.3516 38.5364 73.3312 39.7364 74.0156C40.9458 74.6953 42.3802 75.0328 44.0489 75.0328C45.7224 75.0328 47.1568 74.6953 48.3474 74.0156C49.5474 73.3312 50.4661 72.3516 51.1083 71.0812C51.7458 69.7969 52.0693 68.2781 52.0693 66.5203V66.5203ZM58.1161 62.1375V74.6766H54.6193V55.9313H57.7224L65.9349 68.4H66.0849V55.9313H69.6005V74.6813H66.5255L58.2708 62.1375H58.1208H58.1161Z" fill="white"/>
</g>
<defs>
<clipPath id="clip0_133_400">
<rect width="75" height="75" fill="white" transform="translate(0.783203)"/>
</clipPath>
</defs>
</svg>
