<svg width="76" height="75" viewBox="0 0 76 75" fill="none" xmlns="http://www.w3.org/2000/svg">
<g clip-path="url(#clip0_133_403)">
<path d="M31.5645 26.3125C30.4082 25.8438 29.1582 25.6563 27.877 25.6875C27.0645 25.6875 26.3457 25.6875 25.752 25.7188C25.127 25.6875 24.6895 25.7188 24.4707 25.75V36.25C24.9082 36.2813 25.3145 36.3125 25.6895 36.3125H27.3457C28.5645 36.3125 29.7832 36.125 30.9395 35.75C31.9395 35.4688 32.8145 34.875 33.502 34.0938C34.1582 33.3125 34.4707 32.25 34.4707 30.875C34.502 29.9063 34.252 28.9375 33.752 28.0938C33.2309 27.2824 32.4646 26.6584 31.5645 26.3125ZM62.502 0.9375H14.0645C6.7207 0.9375 0.783203 6.875 0.783203 14.2188V60.7781C0.783203 68.1219 6.7207 74.0594 14.0645 74.0594H62.502C69.8457 74.0594 75.7832 68.1219 75.7832 60.7781V14.2188C75.7832 6.875 69.8457 0.9375 62.502 0.9375ZM39.4051 37.3438C38.1582 39.0938 36.4082 40.4063 34.377 41.1563C32.252 41.9375 29.9082 42.2188 27.3457 42.2188C26.5957 42.2188 26.0957 42.2188 25.7832 42.1875C25.4707 42.1563 25.0332 42.1563 24.4395 42.1563V52.1844C24.4707 52.4031 24.3145 52.5938 24.0957 52.625H18.0332C17.7832 52.625 17.6582 52.4969 17.6582 52.2156V20.0625C17.6582 19.8438 17.752 19.7188 17.9707 19.7188C18.502 19.7188 19.002 19.7188 19.7207 19.6875C20.4707 19.6563 21.252 19.6563 22.0957 19.625C22.9395 19.5938 23.8457 19.5938 24.8145 19.5625C25.7832 19.5313 26.7207 19.5313 27.6582 19.5313C30.2207 19.5313 32.3457 19.8438 34.0957 20.5C35.6582 21.0313 37.0957 21.9063 38.2832 23.0625C39.2832 24.0625 40.0645 25.2813 40.5645 26.625C41.0301 27.9375 41.2801 29.2813 41.2801 30.6875C41.2832 33.375 40.6582 35.5938 39.4051 37.3438V37.3438ZM61.5645 49.5C60.6895 50.75 59.4676 51.7156 58.0645 52.2844C56.5332 52.9375 54.6582 53.2781 52.4051 53.2781C50.9707 53.2781 49.5613 53.1563 48.1582 52.875C47.0645 52.6844 45.9707 52.3438 44.9707 51.875C44.752 51.7531 44.5926 51.5344 44.6238 51.2844V45.8469C44.6238 45.7563 44.6582 45.6281 44.752 45.5656C44.8426 45.5031 44.9395 45.5344 45.0332 45.5969C46.252 46.3156 47.5332 46.8188 48.9082 47.1281C50.0926 47.4406 51.3426 47.5969 52.5957 47.5969C53.7832 47.5969 54.627 47.4375 55.1895 47.1563C55.6895 46.9375 56.0332 46.4063 56.0332 45.8438C56.0332 45.4031 55.7832 45 55.2832 44.5938C54.7832 44.1906 53.7551 43.7219 52.2238 43.1219C50.6301 42.5594 49.1645 41.8094 47.7863 40.875C46.8085 40.1746 45.9966 39.2678 45.4082 38.2188C44.9115 37.23 44.6658 36.1343 44.6926 35.0281C44.6926 33.6844 45.0676 32.4031 45.7582 31.2469C46.5395 29.9969 47.6926 28.9969 49.0363 28.3719C50.502 27.625 52.3457 27.2813 54.5645 27.2813C55.8457 27.2813 57.1582 27.375 58.4395 27.5625C59.377 27.6875 60.2832 27.9375 61.127 28.2813C61.2488 28.3125 61.377 28.4375 61.4395 28.5625C61.4707 28.6875 61.502 28.8125 61.502 28.9375V34.0313C61.502 34.1563 61.4395 34.2813 61.3457 34.3438C61.0645 34.4063 60.9082 34.4063 60.7832 34.3438C59.8457 33.8438 58.8457 33.5 57.7832 33.2813C56.627 33.0313 55.4707 32.875 54.2832 32.875C53.6582 32.8438 53.002 32.9375 52.4051 33.0938C52.002 33.1875 51.6551 33.4063 51.4363 33.7188C51.2801 33.9688 51.1863 34.2813 51.1863 34.5625C51.1863 34.8438 51.3113 35.125 51.502 35.375C51.7832 35.7188 52.1551 36 52.5645 36.2188C53.2801 36.5938 54.0332 36.9375 54.7801 37.25C56.4707 37.8125 58.0957 38.5938 59.5957 39.5313C60.627 40.1844 61.4707 41.0625 62.0613 42.125C62.5613 43.1188 62.8113 44.2188 62.7801 45.3406C62.8145 46.8125 62.377 48.2781 61.5645 49.5V49.5Z" fill="white"/>
</g>
<defs>
<clipPath id="clip0_133_403">
<rect width="75" height="75" fill="white" transform="translate(0.783203)"/>
</clipPath>
</defs>
</svg>
