<svg width="80" height="80" viewBox="0 0 80 80" fill="none" xmlns="http://www.w3.org/2000/svg">
<path d="M65 0C69.1319 0 72.6649 1.46701 75.599 4.40104C78.533 7.33507 80 10.8681 80 15V65C80 69.1319 78.533 72.6649 75.599 75.599C72.6649 78.533 69.1319 80 65 80H55.2083V49.0104H65.5729L67.1354 36.9271H55.2083V29.2188C55.2083 27.2743 55.6163 25.816 56.4323 24.8438C57.2483 23.8715 58.8368 23.3854 61.1979 23.3854L67.5521 23.3333V12.5521C65.3646 12.2396 62.2743 12.0833 58.2812 12.0833C53.559 12.0833 49.783 13.4722 46.9531 16.25C44.1233 19.0278 42.7083 22.9514 42.7083 28.0208V36.9271H32.2917V49.0104H42.7083V80H15C10.8681 80 7.33507 78.533 4.40104 75.599C1.46701 72.6649 0 69.1319 0 65V15C0 10.8681 1.46701 7.33507 4.40104 4.40104C7.33507 1.46701 10.8681 0 15 0H65Z" fill="#5C527F"/>
</svg>
