<svg width="80" height="80" viewBox="0 0 80 80" fill="none" xmlns="http://www.w3.org/2000/svg">
<path d="M52.8 40C52.8 42.5316 52.0493 45.0063 50.6428 47.1113C49.2363 49.2162 47.2372 50.8569 44.8983 51.8257C42.5595 52.7945 39.9858 53.0479 37.5028 52.5541C35.0199 52.0602 32.7391 50.8411 30.949 49.051C29.1589 47.2609 27.9398 44.9801 27.4459 42.4972C26.9521 40.0142 27.2055 37.4405 28.1743 35.1017C29.1431 32.7628 30.7838 30.7637 32.8887 29.3572C34.9937 27.9507 37.4684 27.2 40 27.2C43.3915 27.2105 46.6411 28.5625 49.0393 30.9607C51.4375 33.3589 52.7895 36.6085 52.8 40ZM80 22.4C80 28.3408 80 51.6592 80 57.6C80 63.5409 80 80 80 80H57.6H22.4H0V57.6C0 57.6 0 28.3408 0 22.4C0 16.4592 0 0 0 0C0 0 16.4592 0 22.4 0C28.3408 0 51.6592 0 57.6 0C63.5409 0 80 0 80 0C80 0 80 16.4592 80 22.4ZM59.2 40C59.2 36.2026 58.0739 32.4905 55.9642 29.3331C53.8545 26.1756 50.8559 23.7147 47.3475 22.2615C43.8392 20.8083 39.9787 20.4281 36.2543 21.1689C32.5298 21.9098 29.1087 23.7384 26.4236 26.4236C23.7384 29.1087 21.9098 32.5298 21.1689 36.2543C20.4281 39.9787 20.8083 43.8392 22.2615 47.3475C23.7147 50.8559 26.1756 53.8545 29.3331 55.9642C32.4905 58.0739 36.2026 59.2 40 59.2C45.0922 59.2 49.9758 57.1772 53.5765 53.5765C57.1772 49.9758 59.2 45.0922 59.2 40ZM65.6 19.2C65.6 18.2507 65.3185 17.3226 64.7911 16.5333C64.2636 15.7439 63.514 15.1287 62.6369 14.7654C61.7598 14.4021 60.7947 14.307 59.8636 14.4922C58.9325 14.6774 58.0772 15.1346 57.4059 15.8059C56.7346 16.4772 56.2774 17.3325 56.0922 18.2636C55.907 19.1947 56.0021 20.1598 56.3654 21.0369C56.7287 21.914 57.3439 22.6636 58.1333 23.1911C58.9226 23.7185 59.8506 24 60.8 24C62.073 24 63.2939 23.4943 64.1941 22.5941C65.0943 21.6939 65.6 20.473 65.6 19.2Z" fill="#5C527F"/>
</svg>
