<svg width="80" height="80" viewBox="0 0 80 80" fill="none" xmlns="http://www.w3.org/2000/svg">
<rect x="7" y="7" width="66" height="66" rx="8" stroke="#5C527F" stroke-width="14"/>
<path fill-rule="evenodd" clip-rule="evenodd" d="M80 40C80 62.09 62.09 80 40 80C17.91 80 0 62.09 0 40C0 17.91 17.91 0 40 0C62.09 0 80 17.91 80 40ZM41.4333 29.53C37.5433 31.1467 29.7667 34.4967 18.1067 39.5767C16.2133 40.33 15.22 41.0667 15.13 41.7867C14.9767 43.0067 16.5033 43.4867 18.5767 44.1367C18.86 44.2267 19.1533 44.3167 19.4533 44.4167C21.4967 45.08 24.2433 45.8567 25.67 45.8867C26.9667 45.9133 28.4133 45.38 30.01 44.2867C40.9033 36.93 46.5267 33.2133 46.88 33.1333C47.13 33.0767 47.4767 33.0033 47.71 33.2133C47.9433 33.42 47.92 33.8133 47.8967 33.92C47.7433 34.5633 41.7633 40.1267 38.6633 43.0067C37.6967 43.9033 37.0133 44.54 36.8733 44.6867C36.56 45.01 36.24 45.32 35.9333 45.6167C34.0333 47.4433 32.6133 48.8167 36.0133 51.0567C37.6467 52.1333 38.9533 53.0233 40.2567 53.91C41.68 54.88 43.1 55.8467 44.94 57.0533C45.4067 57.36 45.8533 57.6767 46.29 57.9867C47.9467 59.17 49.4367 60.23 51.2767 60.0633C52.3433 59.9633 53.45 58.96 54.01 55.9633C55.3333 48.8767 57.94 33.53 58.5433 27.2033C58.58 26.678 58.5577 26.1503 58.4767 25.63C58.4282 25.2098 58.2235 24.8231 57.9033 24.5467C57.4267 24.1567 56.6867 24.0733 56.3533 24.08C54.85 24.1067 52.5433 24.91 41.4333 29.53Z" fill="#5C527F"/>
</svg>
