<svg width="100" height="100" viewBox="0 0 100 100" fill="none" xmlns="http://www.w3.org/2000/svg">
<path d="M66 50C66 53.1645 65.0616 56.2579 63.3035 58.8891C61.5454 61.5203 59.0466 63.5711 56.1229 64.7821C53.1993 65.9931 49.9823 66.3099 46.8786 65.6926C43.7749 65.0752 40.9239 63.5513 38.6863 61.3137C36.4487 59.0761 34.9248 56.2251 34.3074 53.1214C33.6901 50.0177 34.0069 46.8007 35.2179 43.8771C36.4289 40.9534 38.4797 38.4546 41.1109 36.6965C43.7421 34.9384 46.8355 34 50 34C54.2394 34.0132 58.3014 35.7031 61.2991 38.7009C64.2969 41.6986 65.9868 45.7606 66 50V50ZM100 28V72C100 79.4261 97.05 86.548 91.799 91.799C86.548 97.05 79.4261 100 72 100H28C20.5739 100 13.452 97.05 8.20101 91.799C2.94999 86.548 0 79.4261 0 72V28C0 20.5739 2.94999 13.452 8.20101 8.20101C13.452 2.94999 20.5739 0 28 0H72C79.4261 0 86.548 2.94999 91.799 8.20101C97.05 13.452 100 20.5739 100 28V28ZM74 50C74 45.2532 72.5924 40.6131 69.9553 36.6663C67.3181 32.7195 63.5698 29.6434 59.1844 27.8269C54.799 26.0104 49.9734 25.5351 45.3178 26.4612C40.6623 27.3872 36.3859 29.673 33.0294 33.0294C29.673 36.3859 27.3872 40.6623 26.4612 45.3178C25.5351 49.9734 26.0104 54.799 27.8269 59.1844C29.6434 63.5698 32.7195 67.3181 36.6663 69.9553C40.6131 72.5924 45.2532 74 50 74C56.3652 74 62.4697 71.4714 66.9706 66.9706C71.4714 62.4697 74 56.3652 74 50ZM82 24C82 22.8133 81.6481 21.6533 80.9888 20.6666C80.3295 19.6799 79.3925 18.9108 78.2961 18.4567C77.1997 18.0026 75.9933 17.8838 74.8295 18.1153C73.6656 18.3468 72.5965 18.9182 71.7574 19.7574C70.9182 20.5965 70.3468 21.6656 70.1153 22.8295C69.8838 23.9933 70.0026 25.1997 70.4567 26.2961C70.9109 27.3925 71.6799 28.3295 72.6666 28.9888C73.6533 29.6481 74.8133 30 76 30C77.5913 30 79.1174 29.3679 80.2426 28.2426C81.3679 27.1174 82 25.5913 82 24Z" fill="white" fill-opacity="0.25"/>
</svg>
