<svg width="100" height="100" viewBox="0 0 100 100" fill="none" xmlns="http://www.w3.org/2000/svg">
<path d="M19.6063 0.0250244C8.83455 0.0250244 0.0185547 8.84082 0.0185547 19.6127V80.3968C0.0185547 91.1685 8.83435 99.9813 19.6063 99.9813H80.3904C91.1622 99.9813 99.9749 91.1686 99.9749 80.3968V19.6127C99.9749 8.84102 91.1622 0.0250244 80.3904 0.0250244H19.6063ZM24.5329 16.5198C29.6977 16.5198 32.879 19.9104 32.9772 24.3673C32.9772 28.7258 29.6975 32.2117 24.433 32.2117H24.3361C19.2696 32.2117 15.9949 28.726 15.9949 24.3673C15.9949 19.9105 19.3688 16.5198 24.5329 16.5198ZM69.0409 37.3508C78.9738 37.3508 86.4199 43.843 86.4199 57.7944V83.8393H71.3246V59.5406C71.3246 53.4346 69.1399 49.2688 63.677 49.2688C59.5066 49.2688 57.0208 52.0766 55.9294 54.789C55.5307 55.7594 55.4327 57.1147 55.4327 58.4722V83.8393H40.3374C40.3374 83.8393 40.5355 42.678 40.3374 38.416H55.4358V44.8484C57.4418 41.7534 61.03 37.3508 69.0409 37.3508ZM16.8853 38.4193H31.9806V83.8395H16.8853V38.4193Z" fill="white" fill-opacity="0.25"/>
</svg>
