<svg width="100" height="100" viewBox="0 0 100 100" fill="none" xmlns="http://www.w3.org/2000/svg">
<path d="M16.6667 8C12.2464 8 8.00716 9.75595 4.88155 12.8816C1.75595 16.0072 0 20.2464 0 24.6667V26.3417L50 53.2667L100 26.35V24.6667C100 20.2464 98.244 16.0072 95.1184 12.8816C91.9928 9.75595 87.7536 8 83.3333 8H16.6667ZM100 35.8083L51.975 61.6667C51.368 61.9934 50.6894 62.1645 50 62.1645C49.3106 62.1645 48.632 61.9934 48.025 61.6667L0 35.8083V74.6667C0 79.0869 1.75595 83.3262 4.88155 86.4518C8.00716 89.5774 12.2464 91.3333 16.6667 91.3333H83.3333C87.7536 91.3333 91.9928 89.5774 95.1184 86.4518C98.244 83.3262 100 79.0869 100 74.6667V35.8083Z" fill="white" fill-opacity="0.25"/>
</svg>
