<svg width="100" height="100" viewBox="0 0 100 100" fill="none" xmlns="http://www.w3.org/2000/svg">
<path d="M89.5671 47H100C100 20.207 79.7968 0 53 0V10.4456C74.1891 10.4456 89.5671 25.8163 89.5671 47Z" fill="white" fill-opacity="0.25"/>
<path d="M52.7707 31.4049C63.8681 31.4049 68.6015 36.138 68.6015 47.2346H79.1553C79.1553 30.2177 69.7888 20.8518 52.7707 20.8518V31.4049ZM70.8284 60.1252C69.8144 59.2036 68.4819 58.7121 67.1124 58.7545C65.7428 58.7968 64.4433 59.3696 63.4881 60.3521L50.8605 73.3376C47.821 72.7572 41.7103 70.8524 35.4202 64.5786C29.1301 58.2836 27.2251 52.1576 26.6605 49.1394L39.6365 36.5074C40.6201 35.553 41.1939 34.2533 41.2362 32.8835C41.2786 31.5136 40.7862 30.181 39.8634 29.1677L20.3651 7.72908C19.4419 6.71259 18.1587 6.09601 16.7882 6.0103C15.4176 5.92458 14.0676 6.37648 13.0249 7.27002L1.57401 17.0897C0.66169 18.0052 0.117156 19.2238 0.0437033 20.5141C-0.0354506 21.8333 -1.54465 53.081 22.687 77.3214C43.8263 98.454 70.3059 100 77.5986 100C78.6646 100 79.3189 99.9683 79.493 99.9578C80.7833 99.8856 82.0013 99.3386 82.9125 98.4223L92.7276 86.9669C93.6218 85.925 94.0747 84.5755 93.9899 83.205C93.9052 81.8346 93.2896 80.5512 92.2738 79.6273L70.8284 60.1252V60.1252Z" fill="white" fill-opacity="0.25"/>
</svg>
