<svg width="100" height="100" viewBox="0 0 100 100" fill="none" xmlns="http://www.w3.org/2000/svg">
<g clip-path="url(#clip0_133_478)">
<path d="M50 0C22.379 0 0 22.379 0 50C0 77.621 22.379 100 50 100C77.621 100 100 77.621 100 50C100 22.379 77.621 0 50 0ZM74.5564 34.254L66.3508 72.9234C65.746 75.6653 64.1129 76.3306 61.8347 75.0403L49.3347 65.8266L43.3065 71.6331C42.6411 72.2984 42.0766 72.8629 40.7863 72.8629L41.6734 60.1411L64.8387 39.2137C65.8468 38.3266 64.6169 37.8226 63.2863 38.7097L34.6573 56.7339L22.3185 52.8831C19.6371 52.0363 19.5766 50.2016 22.8831 48.9113L71.0887 30.3226C73.3266 29.5161 75.2823 30.8669 74.5564 34.254V34.254Z" fill="white" fill-opacity="0.25"/>
</g>
<defs>
<clipPath id="clip0_133_478">
<rect width="100" height="100" fill="white"/>
</clipPath>
</defs>
</svg>
