<svg width="40" height="41" viewBox="0 0 40 41" fill="none" xmlns="http://www.w3.org/2000/svg">
<g clip-path="url(#clip0_133_587)">
<path d="M28 -6.10352e-05H12C5.382 -6.10352e-05 0 5.48816 0 12.2368V36.7105C0 37.2514 0.210714 37.7701 0.585786 38.1526C0.960859 38.5351 1.46957 38.7499 2 38.7499H28C34.618 38.7499 40 33.2617 40 26.5131V12.2368C40 5.48816 34.618 -6.10352e-05 28 -6.10352e-05ZM36 26.5131C36 31.0122 32.412 34.671 28 34.671H4V12.2368C4 7.7377 7.588 4.07889 12 4.07889H28C32.412 4.07889 36 7.7377 36 12.2368V26.5131Z" fill="#5534A5"/>
<path d="M15.8333 21.9697C17.214 21.9697 18.3333 20.8504 18.3333 19.4697C18.3333 18.089 17.214 16.9697 15.8333 16.9697C14.4525 16.9697 13.3333 18.089 13.3333 19.4697C13.3333 20.8504 14.4525 21.9697 15.8333 21.9697Z" fill="#5534A5"/>
<path d="M24.1666 21.9697C25.5473 21.9697 26.6666 20.8504 26.6666 19.4697C26.6666 18.089 25.5473 16.9697 24.1666 16.9697C22.7859 16.9697 21.6666 18.089 21.6666 19.4697C21.6666 20.8504 22.7859 21.9697 24.1666 21.9697Z" fill="#5534A5"/>
</g>
<defs>
<clipPath id="clip0_133_587">
<rect width="40" height="40" fill="white" transform="translate(0 0.199951)"/>
</clipPath>
</defs>
</svg>
