<svg width="71" height="71" viewBox="0 0 71 71" fill="none" xmlns="http://www.w3.org/2000/svg">
<path d="M38.4582 14.7917C38.4582 14.0071 38.1465 13.2546 37.5917 12.6998C37.0369 12.145 36.2844 11.8333 35.4998 11.8333C34.7152 11.8333 33.9628 12.145 33.408 12.6998C32.8532 13.2546 32.5415 14.0071 32.5415 14.7917V17.75C32.5415 18.5346 32.8532 19.2871 33.408 19.8419C33.9628 20.3967 34.7152 20.7083 35.4998 20.7083C36.2844 20.7083 37.0369 20.3967 37.5917 19.8419C38.1465 19.2871 38.4582 18.5346 38.4582 17.75V14.7917ZM26.7077 56.2083H8.87484C8.09024 56.2083 7.33777 55.8967 6.78298 55.3419C6.22818 54.7871 5.9165 54.0346 5.9165 53.25C5.9165 52.4654 6.22818 51.7129 6.78298 51.1581C7.33777 50.6034 8.09024 50.2917 8.87484 50.2917H20.1254C18.5685 47.5933 17.7492 44.5326 17.7498 41.4173C17.7505 38.3019 18.5711 35.2416 20.1291 32.5438C21.6872 29.8461 23.9278 27.6059 26.6259 26.0484C29.324 24.491 32.3845 23.671 35.4998 23.671C38.6152 23.671 41.6757 24.491 44.3738 26.0484C47.0718 27.6059 49.3125 29.8461 50.8705 32.5438C52.4286 35.2416 53.2492 38.3019 53.2498 41.4173C53.2505 44.5326 52.4312 47.5933 50.8743 50.2917H62.1248C62.9094 50.2917 63.6619 50.6034 64.2167 51.1581C64.7715 51.7129 65.0832 52.4654 65.0832 53.25C65.0832 54.0346 64.7715 54.7871 64.2167 55.3419C63.6619 55.8967 62.9094 56.2083 62.1248 56.2083H26.7077ZM35.4998 29.5833C33.0962 29.5832 30.7495 30.315 28.772 31.6815C26.7945 33.048 25.2801 34.9842 24.4302 37.2326C23.5803 39.481 23.4352 41.9349 24.0144 44.2678C24.5935 46.6006 25.8693 48.7018 27.6721 50.2917H43.3276C45.1303 48.7018 46.4062 46.6006 46.9853 44.2678C47.5644 41.9349 47.4194 39.481 46.5695 37.2326C45.7196 34.9842 44.2052 33.048 42.2277 31.6815C40.2502 30.315 37.9035 29.5832 35.4998 29.5833ZM56.4182 24.6814L54.3267 26.7729C54.0538 27.0555 53.7273 27.2808 53.3664 27.4359C53.0055 27.5909 52.6173 27.6725 52.2245 27.676C51.8317 27.6794 51.4421 27.6045 51.0786 27.4558C50.715 27.307 50.3847 27.0874 50.1069 26.8096C49.8292 26.5318 49.6095 26.2015 49.4607 25.838C49.312 25.4744 49.2371 25.0848 49.2406 24.692C49.244 24.2992 49.3256 23.911 49.4806 23.5501C49.6357 23.1892 49.861 22.8627 50.1436 22.5898L52.2351 20.4983C52.508 20.2158 52.8345 19.9904 53.1954 19.8353C53.5563 19.6803 53.9445 19.5987 54.3373 19.5953C54.7301 19.5919 55.1197 19.6667 55.4832 19.8155C55.8468 19.9642 56.1771 20.1839 56.4549 20.4616C56.7326 20.7394 56.9523 21.0697 57.1011 21.4333C57.2498 21.7968 57.3247 22.1864 57.3212 22.5792C57.3178 22.972 57.2362 23.3602 57.0812 23.7211C56.9261 24.0821 56.7008 24.4085 56.4182 24.6814V24.6814Z" fill="white" fill-opacity="0.5"/>
<path d="M11.8332 44.375C12.6178 44.375 13.3702 44.0633 13.925 43.5085C14.4798 42.9537 14.7915 42.2013 14.7915 41.4167C14.7915 40.6321 14.4798 39.8796 13.925 39.3248C13.3702 38.77 12.6178 38.4583 11.8332 38.4583H8.87484C8.09024 38.4583 7.33777 38.77 6.78298 39.3248C6.22818 39.8796 5.9165 40.6321 5.9165 41.4167C5.9165 42.2013 6.22818 42.9537 6.78298 43.5085C7.33777 44.0633 8.09024 44.375 8.87484 44.375H11.8332ZM65.0832 41.4167C65.0832 42.2013 64.7715 42.9537 64.2167 43.5085C63.6619 44.0633 62.9094 44.375 62.1248 44.375H59.1665C58.3819 44.375 57.6294 44.0633 57.0746 43.5085C56.5199 42.9537 56.2082 42.2013 56.2082 41.4167C56.2082 40.6321 56.5199 39.8796 57.0746 39.3248C57.6294 38.77 58.3819 38.4583 59.1665 38.4583H62.1248C62.9094 38.4583 63.6619 38.77 64.2167 39.3248C64.7715 39.8796 65.0832 40.6321 65.0832 41.4167ZM16.673 26.7729C17.231 27.3118 17.9782 27.61 18.7539 27.6033C19.5296 27.5965 20.2716 27.2854 20.8201 26.7369C21.3685 26.1884 21.6797 25.4464 21.6864 24.6707C21.6932 23.8951 21.395 23.1478 20.8561 22.5898L18.7645 20.4983C18.4932 20.2093 18.1665 19.9779 17.804 19.8176C17.4414 19.6574 17.0503 19.5716 16.654 19.5655C16.2576 19.5593 15.8641 19.6329 15.4967 19.7818C15.1293 19.9307 14.7956 20.1519 14.5154 20.4323C14.2352 20.7127 14.0142 21.0466 13.8656 21.414C13.7169 21.7815 13.6436 22.1751 13.6501 22.5715C13.6565 22.9678 13.7425 23.3588 13.903 23.7213C14.0636 24.0837 14.2953 24.4102 14.5844 24.6814L16.676 26.7729H16.673Z" fill="white" fill-opacity="0.5"/>
</svg>
