<svg width="76" height="75" viewBox="0 0 76 75" fill="none" xmlns="http://www.w3.org/2000/svg">
<path d="M7.88249 49.5209C5.93915 52.161 5.03481 55.4237 5.34171 58.6875C5.64862 61.9513 7.14532 64.9882 9.54675 67.2198C11.9482 69.4513 15.0865 70.7216 18.3641 70.7886C21.6416 70.8557 24.8293 69.7148 27.32 67.5834C22.6765 66.7843 18.3659 64.6509 14.9144 61.4435C11.4628 58.2361 9.01947 54.0934 7.88249 49.5209V49.5209Z" fill="#6E85B2"/>
<path d="M16.5908 30.2709C13.1763 34.048 11.3309 38.9852 11.431 44.076C11.531 49.1667 13.569 54.0277 17.1293 57.6677C20.6896 61.3077 25.5042 63.4528 30.5915 63.6655C35.6788 63.8782 40.6557 62.1426 44.5075 58.8125C37.1158 58.443 30.1355 55.2989 24.9605 50.008C19.7855 44.7171 16.7966 37.6689 16.5908 30.2709V30.2709Z" fill="#6E85B2"/>
<path d="M45.9658 4.16663C50.9571 4.16664 55.8365 5.64596 59.9875 8.41772C64.1384 11.1895 67.3748 15.1293 69.2877 19.7395C71.2007 24.3497 71.7044 29.4234 70.7351 34.3197C69.7659 39.216 67.3673 43.7152 63.8423 47.249C60.3172 50.7827 55.824 53.1925 50.9301 54.1738C46.0362 55.1551 40.9612 54.664 36.3463 52.7625C31.7314 50.8609 27.7836 47.6343 25.0016 43.4902C22.2196 39.3461 20.7282 34.4704 20.7158 29.4791C20.7076 26.158 21.3546 22.8679 22.6199 19.7972C23.8851 16.7265 25.7437 13.9356 28.0892 11.5843C30.4347 9.23296 33.2211 7.36747 36.2886 6.09463C39.3562 4.82179 42.6447 4.16662 45.9658 4.16663" fill="#6E85B2"/>
</svg>
