<svg width="51" height="75" viewBox="0 0 51 75" fill="none" xmlns="http://www.w3.org/2000/svg">
<path fill-rule="evenodd" clip-rule="evenodd" d="M14.0469 0C6.26156 0 0.000202046 6.41562 0.000202046 14.275C0.000202046 19.0531 2.3164 23.2969 5.87659 25.8875C4.04171 27.2378 2.55441 28.9915 1.53393 31.0081C0.513451 33.0247 -0.0118273 35.2481 0.000202046 37.5C0.000202046 42.2812 2.3164 46.5219 5.87659 49.1125C4.04171 50.4628 2.55441 52.2165 1.53393 54.2331C0.513451 56.2497 -0.0118273 58.4731 0.000202046 60.725C0.000202046 68.5844 6.26156 75 14.0469 75C21.8291 75 28.0936 68.5844 28.0936 60.725V48.6562C30.554 50.6712 33.6554 51.7758 36.8589 51.7781C44.6442 51.775 50.9056 45.3594 50.9056 37.5C50.9184 35.2479 50.3934 33.0243 49.3729 31.0076C48.3523 28.9909 46.8646 27.2373 45.0292 25.8875C46.8641 24.5372 48.3514 22.7835 49.3719 20.7669C50.3923 18.7503 50.9176 16.5269 50.9056 14.275C50.9056 6.41562 44.6442 0 36.8589 0H14.0469V0ZM5.27845 14.275C5.27845 9.30312 9.22998 5.32187 14.0469 5.32187H22.8122V23.2281H14.0469C9.22998 23.2281 5.27845 19.2437 5.27845 14.275V14.275ZM36.8589 23.225H28.0936V5.31875H36.8589C41.679 5.31875 45.6273 9.30312 45.6273 14.275C45.6273 19.2437 41.679 23.225 36.8589 23.225ZM5.28163 37.5C5.28163 32.5312 9.23316 28.5469 14.0501 28.5469H22.8154V46.4531H14.0469C9.2268 46.4531 5.27845 42.4688 5.27845 37.5H5.28163ZM28.0936 37.5C28.0936 32.5312 32.0451 28.5469 36.8621 28.5469C41.6822 28.5469 45.6305 32.5281 45.6305 37.5C45.6305 42.4688 41.6822 46.4531 36.8621 46.4531C32.0451 46.4531 28.0968 42.4719 28.0968 37.5H28.0936ZM5.28163 60.725C5.28163 55.7562 9.23316 51.775 14.0501 51.775H22.8154V60.725C22.8154 65.6969 18.8702 69.6781 14.0501 69.6781C9.23316 69.6781 5.28163 65.6969 5.28163 60.725Z" fill="#6E85B2"/>
</svg>
