<svg width="76" height="75" viewBox="0 0 76 75" fill="none" xmlns="http://www.w3.org/2000/svg">
<g clip-path="url(#clip0_133_636)">
<path d="M42.1565 17.5031C40.194 12.7281 40.469 7.35625 43.3033 3.03438L45.4221 0C41.5033 7.34375 45.2346 16.3625 51.2346 21.0906C52.8401 22.3472 54.6299 23.3486 56.5408 24.0594C57.0533 24.2469 57.6346 24.4469 58.1658 24.5813C64.8721 26.2688 70.3377 25.1031 73.5908 20.2406C73.4908 20.3906 73.3627 20.6281 73.2002 20.9281C71.7502 23.6156 67.5065 31.4813 55.2002 29.0125C54.9658 28.9656 54.7408 28.8875 54.5158 28.8156L54.3158 28.7469L54.1721 28.7C54.1058 28.6771 54.0391 28.6552 53.9721 28.6344C53.7898 28.5716 53.6085 28.506 53.4283 28.4375C48.4752 26.55 44.2283 22.575 42.1565 17.5031V17.5031Z" fill="#6E85B2"/>
<path d="M25.9658 9.2688C21.1627 16.4407 21.4252 26.0438 25.1721 33.6313C25.8649 35.0432 26.6608 36.4021 27.5533 37.6969C28.2065 38.675 28.9252 39.7594 29.7658 40.5157C30.1127 40.9125 30.4752 41.2969 30.844 41.675L31.0565 41.8938L31.1283 41.9657C31.5014 42.3428 31.8838 42.7107 32.2752 43.0688L32.2783 43.0719L32.2846 43.0782C32.757 43.5056 33.2415 43.9193 33.7377 44.3188L33.8627 44.4188C34.3002 44.7688 34.7471 45.1125 35.2065 45.4407L35.2252 45.4532L35.2471 45.4688C35.394 45.575 35.544 45.6782 35.694 45.7782L35.8596 45.8907C35.9577 45.9556 36.0546 46.0223 36.1502 46.0907C36.4783 46.3094 36.8096 46.5188 37.1471 46.725L37.2408 46.7782L37.2877 46.8094C37.6496 47.0252 38.0153 47.2346 38.3846 47.4375L38.4815 47.4875L38.6065 47.5563C38.769 47.6438 38.9315 47.7344 39.1002 47.8188L39.194 47.8657C39.6774 48.1118 40.1671 48.3452 40.6627 48.5657L40.7627 48.6063C41.2279 48.8111 41.6978 49.0049 42.1721 49.1875L42.2658 49.2219C42.5877 49.3469 42.9096 49.4594 43.2346 49.5719L43.3971 49.6282L43.6721 49.7188C43.794 49.7563 43.9158 49.8 44.0346 49.8407C44.3752 49.9594 44.7158 50.075 45.0721 50.1375C69.8658 54.4 75.5908 34.5875 75.5908 34.5875C70.4315 42.3 60.4377 45.9813 49.7752 43.1063C49.3031 42.9772 48.8342 42.8366 48.369 42.6844C48.243 42.6456 48.118 42.6039 47.994 42.5594L47.9471 42.5438C47.6178 42.4333 47.2907 42.3166 46.9658 42.1938L46.9565 42.1875C46.4172 41.9835 45.8837 41.7646 45.3565 41.5313L45.1815 41.4532C44.5671 41.1754 43.9625 40.8763 43.369 40.5563L43.2377 40.4875L42.8627 40.2875C42.5203 40.0963 42.1817 39.8983 41.8471 39.6938C41.1861 39.2901 40.5398 38.8628 39.9096 38.4125C39.4545 38.084 39.0074 37.7443 38.569 37.3938L38.4596 37.3032C38.3957 37.2515 38.3322 37.1994 38.269 37.1469C33.6002 33.3219 29.9002 28.0938 28.144 22.1688C26.3002 16.0188 26.6971 9.1188 29.8908 3.5188L25.9658 9.2688Z" fill="#6E85B2"/>
<path d="M5.3533 17.6156C-1.2842 27.5219 -0.459196 40.4125 4.61268 50.9375C4.70643 51.1406 4.80955 51.3406 4.90955 51.5375L4.98455 51.6875L5.0783 51.8719C5.1569 52.0357 5.24027 52.1973 5.3283 52.3563L5.36893 52.4344L5.58768 52.8406L5.63455 52.925C5.7908 53.2125 5.9533 53.5 6.11893 53.7875L6.17205 53.8813C6.42248 54.3181 6.68403 54.7484 6.95643 55.1719L7.01268 55.2656L7.19705 55.5563C7.45955 55.9625 7.7283 56.3719 8.00955 56.775V56.7781C8.01621 56.788 8.02352 56.7974 8.03143 56.8063L8.10643 56.9094L8.16893 56.9969C8.41268 57.3406 8.65955 57.6844 8.91268 58.0219L9.19393 58.3906C9.80647 59.1844 10.44 59.9618 11.0939 60.7219L11.1127 60.7438L11.1283 60.7594L11.1502 60.7844C11.8132 61.5313 12.4989 62.2577 13.2064 62.9625L13.3002 63.0563L13.5221 63.275C13.8762 63.6212 14.2367 63.9608 14.6033 64.2938L14.7064 64.3875L14.7877 64.4563C15.1788 64.8054 15.5746 65.1492 15.9752 65.4875L16.1502 65.6344C16.4158 65.8531 16.6846 66.0719 16.9564 66.2844L17.3846 66.625C17.6846 66.8531 17.9846 67.0781 18.2877 67.2969L18.3377 67.3344L18.6189 67.5406L18.7064 67.6031C18.9814 67.8031 19.2596 67.9906 19.5408 68.1781L19.5846 68.2094C19.7107 68.2942 19.8357 68.3807 19.9596 68.4688C20.4812 68.8112 21.0095 69.1435 21.5439 69.4656L21.7127 69.5656C22.1858 69.8451 22.664 70.116 23.1471 70.3781L23.3127 70.4688L23.4971 70.5688C23.6814 70.6688 23.8627 70.7688 24.0502 70.8656L24.1283 70.9031L24.2221 70.95L24.3283 71.0031C24.3908 71.0344 24.4564 71.0656 24.5221 71.1031C24.9096 71.2938 25.2971 71.4813 25.6908 71.6656L25.8377 71.7313L25.9377 71.7781C26.9142 72.2228 27.9077 72.6294 28.9158 72.9969L28.9471 73.0063L29.0783 73.0563C29.7907 73.3125 30.5097 73.5501 31.2346 73.7688C31.5971 73.8906 31.9627 74.0094 32.3377 74.0812C64.4533 80.1625 73.7814 54.05 73.7814 54.05C65.9471 64.6438 52.0408 67.4406 38.8627 64.3281C38.3668 64.2078 37.8767 64.065 37.3939 63.9L37.0252 63.7844C36.5502 63.6344 36.0783 63.4719 35.6096 63.3063L35.4158 63.2344C34.9939 63.0781 34.5814 62.9219 34.1658 62.7531L33.8158 62.6094C33.3633 62.4239 32.9143 62.2302 32.4689 62.0281L32.3252 61.9656C31.9017 61.769 31.4809 61.5669 31.0627 61.3594L30.9346 61.2906C30.8677 61.2588 30.801 61.2265 30.7346 61.1938L30.0658 60.8406L29.8533 60.7281C29.7837 60.6902 29.714 60.6527 29.6439 60.6156L29.2689 60.4094C28.9127 60.2125 28.5627 60.0031 28.2127 59.7938L28.0783 59.7156L27.8596 59.5906C27.3156 59.255 26.778 58.9091 26.2471 58.5531L26.1127 58.4594C24.779 57.5701 23.5006 56.6006 22.2846 55.5563C21.913 55.2421 21.5463 54.9223 21.1846 54.5969L21.1346 54.55C20.6595 54.113 20.1928 53.6671 19.7346 53.2125C19.4699 52.9511 19.2095 52.6854 18.9533 52.4156L18.8471 52.3094C18.4423 51.8864 18.0464 51.4551 17.6596 51.0156L17.6408 50.9969L17.6346 50.9875C17.3033 50.6125 16.9783 50.225 16.6596 49.8375L16.4033 49.5219C16.0762 49.1162 15.7563 48.7047 15.4439 48.2875C15.1689 47.9125 14.8971 47.5438 14.6314 47.1656C7.31893 36.8094 4.6908 22.5219 10.5377 10.7906L5.3533 17.6156Z" fill="#6E85B2"/>
</g>
<defs>
<clipPath id="clip0_133_636">
<rect width="75" height="75" fill="white" transform="translate(0.59082)"/>
</clipPath>
</defs>
</svg>
