<svg width="76" height="75" viewBox="0 0 76 75" fill="none" xmlns="http://www.w3.org/2000/svg">
<g clip-path="url(#clip0_133_665)">
<path fill-rule="evenodd" clip-rule="evenodd" d="M66.4082 21.0938V51.5625H61.7207V21.0938H52.3457C50.4809 21.0938 48.6925 20.353 47.3738 19.0343C46.0552 17.7157 45.3144 15.9273 45.3144 14.0625V4.6875H19.5332C18.29 4.6875 17.0977 5.18136 16.2186 6.06044C15.3396 6.93951 14.8457 8.1318 14.8457 9.375V51.5625H10.1582V9.375C10.1582 6.8886 11.1459 4.50403 12.9041 2.74587C14.6622 0.987721 17.0468 0 19.5332 0L45.3144 0L66.4082 21.0938ZM20.241 71.6719C19.93 71.0117 19.7531 70.2963 19.7207 69.5672H23.3019C23.367 69.9332 23.5068 70.2818 23.7124 70.5915C23.918 70.9012 24.1852 71.1652 24.4973 71.3672C24.8254 71.5969 25.2191 71.775 25.6691 71.9016C26.1144 72.0328 26.6113 72.0938 27.1644 72.0938C27.9332 72.0938 28.5754 71.9859 29.1004 71.7656C29.5784 71.5869 29.9939 71.2725 30.2957 70.8609C30.5619 70.4583 30.6993 69.9842 30.6894 69.5016C30.7033 69.2082 30.6456 68.9159 30.5215 68.6497C30.3974 68.3835 30.2105 68.1515 29.9769 67.9734C29.5035 67.5984 28.7769 67.2984 27.8066 67.0687L24.9098 66.3984C24.0169 66.2095 23.1625 65.8703 22.3832 65.3953C21.6943 64.9735 21.1259 64.3809 20.7332 63.675C20.3345 62.9189 20.136 62.0733 20.1566 61.2188C20.1566 60.075 20.4566 59.0766 21.0473 58.2234C21.6473 57.375 22.4723 56.7141 23.5223 56.2453C24.5769 55.7766 25.791 55.5469 27.1644 55.5469C28.5894 55.5469 29.8082 55.7812 30.816 56.2594C31.8332 56.7375 32.616 57.3797 33.1598 58.1812C33.7223 58.9781 34.0316 59.8641 34.0973 60.8344H30.5816C30.5014 60.3895 30.3076 59.973 30.0191 59.625C29.711 59.251 29.3147 58.9595 28.866 58.7766C28.3159 58.5524 27.7255 58.4439 27.1316 58.4578C26.1191 58.4578 25.3176 58.6922 24.7316 59.1703C24.456 59.3813 24.2339 59.6542 24.0833 59.9668C23.9326 60.2795 23.8577 60.6233 23.8644 60.9703C23.8644 61.5375 24.0894 62.0016 24.5394 62.3766C25.0995 62.7915 25.7474 63.0722 26.4332 63.1969L29.3441 63.8672C30.3613 64.1016 31.2473 64.4297 31.9973 64.8563C32.7205 65.2514 33.3268 65.8302 33.7551 66.5344C34.1769 67.2281 34.3879 68.1047 34.3879 69.1594C34.3879 70.3172 34.0926 71.3437 33.5066 72.2344C32.8826 73.1516 32.0046 73.8667 30.9801 74.2922C29.8832 74.7844 28.5426 75.0328 26.9582 75.0328C25.7676 75.0328 24.7269 74.8922 23.841 74.6109C23.0247 74.366 22.2637 73.9648 21.6004 73.4297C21.0281 72.9465 20.5647 72.3473 20.241 71.6719V71.6719ZM5.69101 71.5172C5.43236 70.8182 5.30214 70.0781 5.30663 69.3328H8.88788C8.89766 69.7768 9.01681 70.2115 9.23476 70.5984C9.45059 70.9664 9.76296 71.2684 10.1381 71.4717C10.5132 71.6749 10.9367 71.7717 11.3629 71.7516C12.2535 71.7516 12.9098 71.4937 13.341 70.9828C13.7676 70.4672 13.9832 69.7406 13.9832 68.7984V55.9313H17.691V68.7047C17.691 70.7672 17.1332 72.3328 16.0176 73.4156C14.9066 74.4937 13.3691 75.0328 11.4004 75.0328C10.4935 75.0492 9.59117 74.8999 8.73788 74.5922C8.02001 74.3179 7.36941 73.8927 6.83007 73.3453C6.33023 72.8196 5.94267 72.1976 5.69101 71.5172V71.5172ZM48.3051 64.0875V66.5344C48.3051 67.7344 48.1223 68.7375 47.7566 69.5391C47.4452 70.2805 46.9197 70.9121 46.2473 71.3531C45.5833 71.7539 44.8195 71.9586 44.0441 71.9437C43.2689 71.9571 42.5056 71.7525 41.841 71.3531C41.1736 70.909 40.6518 70.278 40.341 69.5391C39.9474 68.5877 39.7604 67.5635 39.7926 66.5344V64.0875C39.7926 62.8781 39.9754 61.8797 40.341 61.0828C40.6518 60.3438 41.1736 59.7129 41.841 59.2688C42.5026 58.8609 43.2671 58.6511 44.0441 58.6641C44.8738 58.6641 45.6051 58.8656 46.2473 59.2688C46.9197 59.7098 47.4452 60.3414 47.7566 61.0828C48.1223 61.8797 48.3051 62.8781 48.3051 64.0875ZM52.0691 66.5203V64.1156C52.0691 62.3484 51.7457 60.8297 51.1082 59.5547C50.505 58.3141 49.541 57.2847 48.3426 56.6016C47.1566 55.9172 45.7223 55.5703 44.0488 55.5703C42.3801 55.5703 40.9457 55.9172 39.7363 56.6016C38.5375 57.2785 37.5742 58.3056 36.9754 59.5453C36.3332 60.8156 36.0144 62.3391 36.0144 64.1156V66.5203C36.0144 68.2781 36.3332 69.7969 36.9754 71.0812C37.6176 72.3516 38.5363 73.3312 39.7363 74.0156C40.9457 74.6953 42.3801 75.0328 44.0488 75.0328C45.7223 75.0328 47.1566 74.6953 48.3473 74.0156C49.5473 73.3312 50.466 72.3516 51.1082 71.0812C51.7457 69.7969 52.0691 68.2781 52.0691 66.5203V66.5203ZM58.116 62.1375V74.6766H54.6191V55.9313H57.7223L65.9348 68.4H66.0848V55.9313H69.6004V74.6813H66.5254L58.2707 62.1375H58.1207H58.116Z" fill="#6E85B2"/>
</g>
<defs>
<clipPath id="clip0_133_665">
<rect width="75" height="75" fill="white" transform="translate(0.783203)"/>
</clipPath>
</defs>
</svg>
