<svg width="150" height="61" viewBox="0 0 150 61" fill="none" xmlns="http://www.w3.org/2000/svg">
<path d="M32.1223 28V4.9H37.4683V23.644H49.0513V28H32.1223ZM60.0266 28.264C58.1346 28.264 56.4516 27.868 54.9776 27.076C53.5256 26.284 52.3706 25.206 51.5126 23.842C50.6766 22.456 50.2586 20.883 50.2586 19.123C50.2586 17.341 50.6766 15.768 51.5126 14.404C52.3706 13.018 53.5256 11.94 54.9776 11.17C56.4516 10.378 58.1346 9.982 60.0266 9.982C61.8966 9.982 63.5686 10.378 65.0426 11.17C66.5166 11.94 67.6716 13.007 68.5076 14.371C69.3436 15.735 69.7616 17.319 69.7616 19.123C69.7616 20.883 69.3436 22.456 68.5076 23.842C67.6716 25.206 66.5166 26.284 65.0426 27.076C63.5686 27.868 61.8966 28.264 60.0266 28.264ZM60.0266 24.04C60.8846 24.04 61.6546 23.842 62.3366 23.446C63.0186 23.05 63.5576 22.489 63.9536 21.763C64.3496 21.015 64.5476 20.135 64.5476 19.123C64.5476 18.089 64.3496 17.209 63.9536 16.483C63.5576 15.757 63.0186 15.196 62.3366 14.8C61.6546 14.404 60.8846 14.206 60.0266 14.206C59.1686 14.206 58.3986 14.404 57.7166 14.8C57.0346 15.196 56.4846 15.757 56.0666 16.483C55.6706 17.209 55.4726 18.089 55.4726 19.123C55.4726 20.135 55.6706 21.015 56.0666 21.763C56.4846 22.489 57.0346 23.05 57.7166 23.446C58.3986 23.842 59.1686 24.04 60.0266 24.04ZM81.7827 28.264C79.8687 28.264 78.1637 27.879 76.6677 27.109C75.1717 26.317 73.9947 25.228 73.1367 23.842C72.3007 22.456 71.8827 20.883 71.8827 19.123C71.8827 17.341 72.3007 15.768 73.1367 14.404C73.9947 13.018 75.1717 11.94 76.6677 11.17C78.1637 10.378 79.8687 9.982 81.7827 9.982C83.6527 9.982 85.2807 10.378 86.6667 11.17C88.0527 11.94 89.0757 13.051 89.7357 14.503L85.7427 16.648C85.2807 15.812 84.6977 15.196 83.9937 14.8C83.3117 14.404 82.5637 14.206 81.7497 14.206C80.8697 14.206 80.0777 14.404 79.3737 14.8C78.6697 15.196 78.1087 15.757 77.6907 16.483C77.2947 17.209 77.0967 18.089 77.0967 19.123C77.0967 20.157 77.2947 21.037 77.6907 21.763C78.1087 22.489 78.6697 23.05 79.3737 23.446C80.0777 23.842 80.8697 24.04 81.7497 24.04C82.5637 24.04 83.3117 23.853 83.9937 23.479C84.6977 23.083 85.2807 22.456 85.7427 21.598L89.7357 23.776C89.0757 25.206 88.0527 26.317 86.6667 27.109C85.2807 27.879 83.6527 28.264 81.7827 28.264ZM103.59 28V24.535L103.26 23.776V17.572C103.26 16.472 102.919 15.614 102.237 14.998C101.577 14.382 100.554 14.074 99.1677 14.074C98.2217 14.074 97.2867 14.228 96.3627 14.536C95.4607 14.822 94.6907 15.218 94.0527 15.724L92.2047 12.127C93.1727 11.445 94.3387 10.917 95.7027 10.543C97.0667 10.169 98.4527 9.982 99.8607 9.982C102.567 9.982 104.668 10.62 106.164 11.896C107.66 13.172 108.408 15.163 108.408 17.869V28H103.59ZM98.1777 28.264C96.7917 28.264 95.6037 28.033 94.6137 27.571C93.6237 27.087 92.8647 26.438 92.3367 25.624C91.8087 24.81 91.5447 23.897 91.5447 22.885C91.5447 21.829 91.7977 20.905 92.3037 20.113C92.8317 19.321 93.6567 18.705 94.7787 18.265C95.9007 17.803 97.3637 17.572 99.1677 17.572H103.887V20.575H99.7287C98.5187 20.575 97.6827 20.773 97.2207 21.169C96.7807 21.565 96.5607 22.06 96.5607 22.654C96.5607 23.314 96.8137 23.842 97.3197 24.238C97.8477 24.612 98.5627 24.799 99.4647 24.799C100.323 24.799 101.093 24.601 101.775 24.205C102.457 23.787 102.952 23.182 103.26 22.39L104.052 24.766C103.678 25.91 102.996 26.779 102.006 27.373C101.016 27.967 99.7397 28.264 98.1777 28.264ZM113.067 28V3.514H118.215V28H113.067ZM18.203 54.264C16.685 54.264 15.222 54.088 13.814 53.736C12.428 53.362 11.328 52.9 10.514 52.35L12.23 48.654C13.044 49.16 14.001 49.578 15.101 49.908C16.223 50.216 17.323 50.37 18.401 50.37C19.589 50.37 20.425 50.227 20.909 49.941C21.415 49.655 21.668 49.259 21.668 48.753C21.668 48.335 21.47 48.027 21.074 47.829C20.7 47.609 20.194 47.444 19.556 47.334C18.918 47.224 18.214 47.114 17.444 47.004C16.696 46.894 15.937 46.751 15.167 46.575C14.397 46.377 13.693 46.091 13.055 45.717C12.417 45.343 11.9 44.837 11.504 44.199C11.13 43.561 10.943 42.736 10.943 41.724C10.943 40.602 11.262 39.612 11.9 38.754C12.56 37.896 13.506 37.225 14.738 36.741C15.97 36.235 17.444 35.982 19.16 35.982C20.37 35.982 21.602 36.114 22.856 36.378C24.11 36.642 25.155 37.027 25.991 37.533L24.275 41.196C23.417 40.69 22.548 40.349 21.668 40.173C20.81 39.975 19.974 39.876 19.16 39.876C18.016 39.876 17.18 40.03 16.652 40.338C16.124 40.646 15.86 41.042 15.86 41.526C15.86 41.966 16.047 42.296 16.421 42.516C16.817 42.736 17.334 42.912 17.972 43.044C18.61 43.176 19.303 43.297 20.051 43.407C20.821 43.495 21.591 43.638 22.361 43.836C23.131 44.034 23.824 44.32 24.44 44.694C25.078 45.046 25.595 45.541 25.991 46.179C26.387 46.795 26.585 47.609 26.585 48.621C26.585 49.721 26.255 50.7 25.595 51.558C24.935 52.394 23.978 53.054 22.724 53.538C21.492 54.022 19.985 54.264 18.203 54.264ZM37.0213 54.264C34.9313 54.264 33.3033 53.736 32.1373 52.68C30.9713 51.602 30.3883 50.007 30.3883 47.895V32.319H35.5363V47.829C35.5363 48.577 35.7343 49.16 36.1303 49.578C36.5263 49.974 37.0653 50.172 37.7473 50.172C38.5613 50.172 39.2543 49.952 39.8263 49.512L41.2123 53.142C40.6843 53.516 40.0463 53.802 39.2983 54C38.5723 54.176 37.8133 54.264 37.0213 54.264ZM27.6493 40.602V36.642H39.9583V40.602H27.6493ZM52.0022 54.264C50.1102 54.264 48.4272 53.868 46.9532 53.076C45.5012 52.284 44.3462 51.206 43.4882 49.842C42.6522 48.456 42.2342 46.883 42.2342 45.123C42.2342 43.341 42.6522 41.768 43.4882 40.404C44.3462 39.018 45.5012 37.94 46.9532 37.17C48.4272 36.378 50.1102 35.982 52.0022 35.982C53.8722 35.982 55.5442 36.378 57.0182 37.17C58.4922 37.94 59.6472 39.007 60.4832 40.371C61.3192 41.735 61.7372 43.319 61.7372 45.123C61.7372 46.883 61.3192 48.456 60.4832 49.842C59.6472 51.206 58.4922 52.284 57.0182 53.076C55.5442 53.868 53.8722 54.264 52.0022 54.264ZM52.0022 50.04C52.8602 50.04 53.6302 49.842 54.3122 49.446C54.9942 49.05 55.5332 48.489 55.9292 47.763C56.3252 47.015 56.5232 46.135 56.5232 45.123C56.5232 44.089 56.3252 43.209 55.9292 42.483C55.5332 41.757 54.9942 41.196 54.3122 40.8C53.6302 40.404 52.8602 40.206 52.0022 40.206C51.1442 40.206 50.3742 40.404 49.6922 40.8C49.0102 41.196 48.4602 41.757 48.0422 42.483C47.6462 43.209 47.4482 44.089 47.4482 45.123C47.4482 46.135 47.6462 47.015 48.0422 47.763C48.4602 48.489 49.0102 49.05 49.6922 49.446C50.3742 49.842 51.1442 50.04 52.0022 50.04ZM65.1782 54V36.246H70.0952V41.262L69.4022 39.81C69.9302 38.556 70.7772 37.61 71.9432 36.972C73.1092 36.312 74.5282 35.982 76.2002 35.982V40.734C75.9802 40.712 75.7822 40.701 75.6062 40.701C75.4302 40.679 75.2432 40.668 75.0452 40.668C73.6372 40.668 72.4932 41.075 71.6132 41.889C70.7552 42.681 70.3262 43.924 70.3262 45.618V54H65.1782ZM88.9911 54V50.535L88.6611 49.776V43.572C88.6611 42.472 88.3201 41.614 87.6381 40.998C86.9781 40.382 85.9551 40.074 84.5691 40.074C83.6231 40.074 82.6881 40.228 81.7641 40.536C80.8621 40.822 80.0921 41.218 79.4541 41.724L77.6061 38.127C78.5741 37.445 79.7401 36.917 81.1041 36.543C82.4681 36.169 83.8541 35.982 85.2621 35.982C87.9681 35.982 90.0691 36.62 91.5651 37.896C93.0611 39.172 93.8091 41.163 93.8091 43.869V54H88.9911ZM83.5791 54.264C82.1931 54.264 81.0051 54.033 80.0151 53.571C79.0251 53.087 78.2661 52.438 77.7381 51.624C77.2101 50.81 76.9461 49.897 76.9461 48.885C76.9461 47.829 77.1991 46.905 77.7051 46.113C78.2331 45.321 79.0581 44.705 80.1801 44.265C81.3021 43.803 82.7651 43.572 84.5691 43.572H89.2881V46.575H85.1301C83.9201 46.575 83.0841 46.773 82.6221 47.169C82.1821 47.565 81.9621 48.06 81.9621 48.654C81.9621 49.314 82.2151 49.842 82.7211 50.238C83.2491 50.612 83.9641 50.799 84.8661 50.799C85.7241 50.799 86.4941 50.601 87.1761 50.205C87.8581 49.787 88.3531 49.182 88.6611 48.39L89.4531 50.766C89.0791 51.91 88.3971 52.779 87.4071 53.373C86.4171 53.967 85.1411 54.264 83.5791 54.264ZM106.946 60.666C105.274 60.666 103.657 60.457 102.095 60.039C100.555 59.643 99.2682 59.038 98.2342 58.224L100.28 54.528C101.028 55.144 101.974 55.628 103.118 55.98C104.284 56.354 105.428 56.541 106.55 56.541C108.376 56.541 109.696 56.134 110.51 55.32C111.346 54.506 111.764 53.296 111.764 51.69V49.017L112.094 44.562L112.028 40.074V36.246H116.912V51.03C116.912 54.33 116.054 56.761 114.338 58.323C112.622 59.885 110.158 60.666 106.946 60.666ZM106.154 53.142C104.504 53.142 103.008 52.79 101.666 52.086C100.346 51.36 99.2792 50.359 98.4652 49.083C97.6732 47.785 97.2772 46.278 97.2772 44.562C97.2772 42.824 97.6732 41.317 98.4652 40.041C99.2792 38.743 100.346 37.742 101.666 37.038C103.008 36.334 104.504 35.982 106.154 35.982C107.65 35.982 108.97 36.29 110.114 36.906C111.258 37.5 112.149 38.435 112.787 39.711C113.425 40.965 113.744 42.582 113.744 44.562C113.744 46.52 113.425 48.137 112.787 49.413C112.149 50.667 111.258 51.602 110.114 52.218C108.97 52.834 107.65 53.142 106.154 53.142ZM107.177 48.918C108.079 48.918 108.882 48.742 109.586 48.39C110.29 48.016 110.84 47.499 111.236 46.839C111.632 46.179 111.83 45.42 111.83 44.562C111.83 43.682 111.632 42.923 111.236 42.285C110.84 41.625 110.29 41.119 109.586 40.767C108.882 40.393 108.079 40.206 107.177 40.206C106.275 40.206 105.472 40.393 104.768 40.767C104.064 41.119 103.503 41.625 103.085 42.285C102.689 42.923 102.491 43.682 102.491 44.562C102.491 45.42 102.689 46.179 103.085 46.839C103.503 47.499 104.064 48.016 104.768 48.39C105.472 48.742 106.275 48.918 107.177 48.918ZM130.515 54.264C128.491 54.264 126.709 53.868 125.169 53.076C123.651 52.284 122.474 51.206 121.638 49.842C120.802 48.456 120.384 46.883 120.384 45.123C120.384 43.341 120.791 41.768 121.605 40.404C122.441 39.018 123.574 37.94 125.004 37.17C126.434 36.378 128.051 35.982 129.855 35.982C131.593 35.982 133.155 36.356 134.541 37.104C135.949 37.83 137.06 38.886 137.874 40.272C138.688 41.636 139.095 43.275 139.095 45.189C139.095 45.387 139.084 45.618 139.062 45.882C139.04 46.124 139.018 46.355 138.996 46.575H124.575V43.572H136.29L134.31 44.463C134.31 43.539 134.123 42.736 133.749 42.054C133.375 41.372 132.858 40.844 132.198 40.47C131.538 40.074 130.768 39.876 129.888 39.876C129.008 39.876 128.227 40.074 127.545 40.47C126.885 40.844 126.368 41.383 125.994 42.087C125.62 42.769 125.433 43.583 125.433 44.529V45.321C125.433 46.289 125.642 47.147 126.06 47.895C126.5 48.621 127.105 49.182 127.875 49.578C128.667 49.952 129.591 50.139 130.647 50.139C131.593 50.139 132.418 49.996 133.122 49.71C133.848 49.424 134.508 48.995 135.102 48.423L137.841 51.393C137.027 52.317 136.004 53.032 134.772 53.538C133.54 54.022 132.121 54.264 130.515 54.264Z" fill="#6E85B2"/>
</svg>
