<svg width="142" height="85" viewBox="0 0 142 85" fill="none" xmlns="http://www.w3.org/2000/svg">
<path d="M58.9991 69.9C51.5491 69.9 45.7241 67.825 41.5241 63.675C37.3241 59.525 35.2241 53.6 35.2241 45.9V16.5H47.3741V45.45C47.3741 50.45 48.3991 54.05 50.4491 56.25C52.4991 58.45 55.3741 59.55 59.0741 59.55C62.7741 59.55 65.6491 58.45 67.6991 56.25C69.7491 54.05 70.7741 50.45 70.7741 45.45V16.5H82.7741V45.9C82.7741 53.6 80.6741 59.525 76.4741 63.675C72.2741 67.825 66.4491 69.9 58.9991 69.9ZM94.7805 69V16.5H106.931V69H94.7805Z" fill="#6E85B2"/>
</svg>
