<svg width="132" height="66" viewBox="0 0 132 66" fill="none" xmlns="http://www.w3.org/2000/svg">
<path d="M39.8591 60.9C32.4091 60.9 26.5841 58.825 22.3841 54.675C18.1841 50.525 16.0841 44.6 16.0841 36.9V7.5H28.2341V36.45C28.2341 41.45 29.2591 45.05 31.3091 47.25C33.3591 49.45 36.2341 50.55 39.9341 50.55C43.6341 50.55 46.5091 49.45 48.5591 47.25C50.6091 45.05 51.6341 41.45 51.6341 36.45V7.5H63.6341V36.9C63.6341 44.6 61.5341 50.525 57.3341 54.675C53.1341 58.825 47.3091 60.9 39.8591 60.9ZM68.9081 60L91.4831 28.875V37.725L69.8831 7.5H83.6831L98.6081 28.575L92.8331 28.65L107.533 7.5H120.733L99.2831 37.2V28.5L122.008 60H107.983L92.5331 37.725H98.0831L82.8581 60H68.9081Z" fill="#6E85B2"/>
</svg>
