<svg width="80" height="80" viewBox="0 0 80 80" fill="none" xmlns="http://www.w3.org/2000/svg">
<path d="M27.0312 55.8333C27.1701 55.625 27.1181 55.3993 26.875 55.1562C26.5625 54.9132 26.3194 54.8785 26.1458 55.0521C26.0069 55.2604 26.059 55.4861 26.3021 55.7292C26.6146 55.9722 26.8576 56.0069 27.0312 55.8333ZM25.5729 53.6979C25.3993 53.4549 25.191 53.3854 24.9479 53.4896C24.7396 53.6285 24.7396 53.8368 24.9479 54.1146C25.191 54.3924 25.3993 54.4792 25.5729 54.375C25.7812 54.2361 25.7812 54.0104 25.5729 53.6979ZM23.4375 51.6146C23.5069 51.4757 23.4201 51.3368 23.1771 51.1979C22.934 51.1285 22.7951 51.1632 22.7604 51.3021C22.6562 51.4757 22.7257 51.6146 22.9687 51.7187C23.2465 51.7882 23.4028 51.7535 23.4375 51.6146ZM24.5312 52.8125C24.6007 52.7778 24.6267 52.6997 24.6094 52.5781C24.592 52.4566 24.5312 52.3611 24.4271 52.2917C24.2187 52.0486 24.0451 51.9965 23.9062 52.1354C23.7674 52.2743 23.7847 52.4653 23.9583 52.7083C24.1667 52.9167 24.3576 52.9514 24.5312 52.8125ZM29.0104 56.7187C29.0799 56.4757 28.9236 56.2847 28.5417 56.1458C28.2292 56.0417 28.0035 56.1111 27.8646 56.3542C27.7951 56.5972 27.9514 56.7882 28.3333 56.9271C28.6458 57.0312 28.8715 56.9618 29.0104 56.7187ZM31.1979 56.875C31.1979 56.5972 30.9896 56.4583 30.5729 56.4583C30.2257 56.4583 30.0521 56.5972 30.0521 56.875C30.0521 57.1528 30.2431 57.2917 30.625 57.2917C31.0069 57.2917 31.1979 57.1528 31.1979 56.875ZM33.2292 56.5104C33.1597 56.2674 32.934 56.1806 32.5521 56.25C32.1701 56.3194 32.0139 56.4757 32.0833 56.7187C32.1528 56.9965 32.3611 57.1007 32.7083 57.0312C33.0556 56.9618 33.2292 56.7882 33.2292 56.5104ZM66.6667 40C66.6667 32.6389 64.0625 26.3542 58.8542 21.1458C53.6458 15.9375 47.3611 13.3333 40 13.3333C32.6389 13.3333 26.3542 15.9375 21.1458 21.1458C15.9375 26.3542 13.3333 32.6389 13.3333 40C13.3333 45.7986 15.0347 51.0156 18.4375 55.651C21.8403 60.2865 26.2153 63.5069 31.5625 65.3125C32.1875 65.4167 32.6476 65.3299 32.9427 65.0521C33.2378 64.7743 33.3854 64.4271 33.3854 64.0104C33.3854 62.2049 33.3681 60.5556 33.3333 59.0625C33.125 59.0972 32.8559 59.1406 32.526 59.1927C32.1962 59.2448 31.5799 59.2795 30.6771 59.2969C29.7743 59.3142 28.941 59.2448 28.1771 59.0885C27.4132 58.9323 26.658 58.5851 25.9115 58.0469C25.1649 57.5087 24.6528 56.7882 24.375 55.8854C23.5764 53.8368 22.5868 52.5521 21.4062 52.0312C21.3368 51.9965 21.2587 51.9358 21.1719 51.849L20.7552 51.4323L20.3906 50.9375L20.599 50.5469L21.6146 50.3646C21.8229 50.3646 22.0833 50.3993 22.3958 50.4687C22.7083 50.5382 23.2292 50.8073 23.9583 51.276C24.6875 51.7448 25.2604 52.3611 25.6771 53.125C26.2326 54.0972 26.8837 54.8264 27.6302 55.3125C28.3767 55.7986 29.1319 56.0417 29.8958 56.0417C30.6597 56.0417 31.3194 55.9809 31.875 55.8594C32.4306 55.7378 32.9514 55.5729 33.4375 55.3646C33.6806 53.7326 34.2535 52.5347 35.1562 51.7708C33.4549 51.5625 31.9618 51.2413 30.6771 50.8073C29.3924 50.3733 28.125 49.6962 26.875 48.776C25.625 47.8559 24.6615 46.5365 23.9844 44.8177C23.3073 43.099 22.9687 41.0243 22.9687 38.5937C22.9687 35.8507 23.8889 33.4722 25.7292 31.4583C24.8958 29.3056 24.9826 26.9444 25.9896 24.375C26.6493 24.1667 27.5955 24.2969 28.8281 24.7656C30.0608 25.2344 31.1111 25.7465 31.9792 26.3021L33.3333 27.1354C35.3472 26.5451 37.5694 26.25 40 26.25C42.4306 26.25 44.6528 26.5451 46.6667 27.1354C47.0486 26.8924 47.5434 26.5799 48.151 26.1979C48.7587 25.816 49.7222 25.3646 51.0417 24.8437C52.3611 24.3229 53.3507 24.1667 54.0104 24.375C55.0174 26.9444 55.1042 29.3056 54.2708 31.4583C56.1111 33.4722 57.0312 35.8507 57.0312 38.5937C57.0312 40.5729 56.7882 42.3177 56.3021 43.8281C55.816 45.3385 55.1997 46.5538 54.4531 47.474C53.7066 48.3941 52.7778 49.1667 51.6667 49.7917C50.5556 50.4167 49.4705 50.8681 48.4115 51.1458C47.3524 51.4236 46.1632 51.6319 44.8437 51.7708C46.059 52.8472 46.6667 54.4965 46.6667 56.7187C46.6667 58.1076 46.658 59.6528 46.6406 61.3542C46.6233 63.0556 46.6146 63.941 46.6146 64.0104C46.6146 64.4271 46.7622 64.7743 47.0573 65.0521C47.3524 65.3299 47.8125 65.4167 48.4375 65.3125C53.7847 63.5069 58.1597 60.2865 61.5625 55.651C64.9653 51.0156 66.6667 45.7986 66.6667 40ZM80 15V65C80 69.1319 78.533 72.6649 75.599 75.599C72.6649 78.533 69.1319 80 65 80H15C10.8681 80 7.33507 78.533 4.40104 75.599C1.46701 72.6649 0 69.1319 0 65V15C0 10.8681 1.46701 7.33507 4.40104 4.40104C7.33507 1.46701 10.8681 0 15 0H65C69.1319 0 72.6649 1.46701 75.599 4.40104C78.533 7.33507 80 10.8681 80 15Z" fill="#5534A5"/>
</svg>
